<svg xmlns="http://www.w3.org/2000/svg" width="17.994" height="18" viewBox="0 0 17.994 18">
  <path id="Phone" d="M3459.929,695.809a1.337,1.337,0,0,0-1.884,0l-1.135,1.131a1.254,1.254,0,0,1-1.769,0l-4.275-4.275a1.254,1.254,0,0,1,0-1.769l1.144-1.133a1.339,1.339,0,0,0,0-1.884l-3.263-3.263a.8.8,0,0,0-.611-.24h-.064a.864.864,0,0,0-.649.381l-.762,1.132a7.312,7.312,0,0,0,.9,9.193l5.175,5.175a7.29,7.29,0,0,0,5.107,2.118h.077a7.266,7.266,0,0,0,4-1.218l1.132-.761a.853.853,0,0,0,.378-.624.867.867,0,0,0-.249-.71Z" transform="translate(-3445.443 -684.375)" fill="#fff"/>
</svg>
