<svg xmlns="http://www.w3.org/2000/svg" xmlns:xlink="http://www.w3.org/1999/xlink" width="15.555" height="20" viewBox="0 0 15.555 20">
  <defs>
    <clipPath id="clip-path">
      <rect id="Прямоугольник_21" data-name="Прямоугольник 21" width="15.555" height="20" fill="none"/>
    </clipPath>
  </defs>
  <g id="calculator" transform="translate(0 0)">
    <g id="Сгруппировать_119" data-name="Сгруппировать 119" transform="translate(0 0)" clip-path="url(#clip-path)">
      <path id="Контур_1002" data-name="Контур 1002" d="M14.126,0H1.43A1.43,1.43,0,0,0,0,1.43V18.571A1.43,1.43,0,0,0,1.43,20h12.7a1.43,1.43,0,0,0,1.43-1.43V1.43A1.43,1.43,0,0,0,14.126,0M2.688,3.026h9.987a.722.722,0,1,1,0,1.445H2.688a.722.722,0,1,1,0-1.445m0,2.986h9.987a.722.722,0,1,1,0,1.445H2.688a.722.722,0,1,1,0-1.445M1.965,9.721A.723.723,0,0,1,2.688,9H8.821a.722.722,0,1,1,0,1.445H2.688a.723.723,0,0,1-.722-.722m11.408,4.711L10.681,17a.721.721,0,0,1-.987.01L8.147,15.588a.723.723,0,0,1,.979-1.064l1.048.964,2.2-2.1a.722.722,0,0,1,1,1.045" transform="translate(0 0)" fill="#fff"/>
    </g>
  </g>
</svg>
