<svg id="Geo" xmlns="http://www.w3.org/2000/svg" xmlns:xlink="http://www.w3.org/1999/xlink" width="64" height="70" viewBox="0 0 64 70">
  <defs>
    <linearGradient id="linear-gradient" x1="-0.376" y1="1.853" x2="-0.374" y2="1.853" gradientUnits="objectBoundingBox">
      <stop offset="0" stop-color="#081daa"/>
      <stop offset="1" stop-color="#f70d0c"/>
    </linearGradient>
    <linearGradient id="linear-gradient-2" x1="0.08" y1="0.043" x2="1" y2="0.971" gradientUnits="objectBoundingBox">
      <stop offset="0" stop-color="#2e58c5"/>
      <stop offset="0.898" stop-color="#212999"/>
      <stop offset="1" stop-color="#202797"/>
    </linearGradient>
    <clipPath id="clip-path">
      <rect id="Прямоугольник_59" data-name="Прямоугольник 59" width="64" height="39.539" fill="none" opacity="0.9"/>
    </clipPath>
    <clipPath id="clip-path-2">
      <path id="Контур_1327" data-name="Контур 1327" d="M193.793,188.11l.02-.007.005-.022-.025.029m49.732-21.279a46.218,46.218,0,0,0-5.748.68c-.5.093-1,.227-1.516.345a4.173,4.173,0,0,1,.323,1.45,6.411,6.411,0,0,1-.527,2.776,14.248,14.248,0,0,1-2.582,4,29.643,29.643,0,0,1-9.263,7.126,82.266,82.266,0,0,1-14.791,5.6c-1.363.37-2.745.72-4.13,1.019-1.056.222-2.131.37-3.2.527a26.251,26.251,0,0,1-4.552.275,12.46,12.46,0,0,1-2.89-.4,2.4,2.4,0,0,1-.979-.481.909.909,0,0,1-.2-1.2,4.971,4.971,0,0,1,.328-.434,1.351,1.351,0,0,0-.886,1.2,2.2,2.2,0,0,0,.762,1.713,5.377,5.377,0,0,0,2.292,1.13,16.706,16.706,0,0,0,4.037.5,28.164,28.164,0,0,0,4.323-.211c1.757-.235,3.519-.456,5.259-.791a67.5,67.5,0,0,0,9.634-2.679,45.785,45.785,0,0,0,6.155-2.565c2.491-1.307,4.952-2.652,7.367-4.086,1.442-.855,2.86-1.751,4.279-2.642.753-.473,1.487-.975,2.23-1.463.627-.413,1.267-.809,1.886-1.234a59.862,59.862,0,0,0,4.89-3.67,19.223,19.223,0,0,0,3.062-3.075,4.348,4.348,0,0,0,.863-1.668c.009-.025.016-.05.023-.076a1.089,1.089,0,0,0,.027-.137v-.288a1.1,1.1,0,0,0-.811-.92,6.477,6.477,0,0,0-1.64-.319q-1-.076-2.01-.076t-2.01.076" transform="translate(-192.906 -166.755)" fill="url(#linear-gradient)"/>
    </clipPath>
    <linearGradient id="linear-gradient-3" x1="1.198" y1="-0.297" x2="0.021" y2="0.87" xlink:href="#linear-gradient"/>
    <clipPath id="clip-path-3">
      <path id="Контур_1328" data-name="Контур 1328" d="M178.81,78.066a54.985,54.985,0,0,0-6.711.791c-.949.153-1.889.373-2.825.594a75.391,75.391,0,0,0-9.054,2.755,31.021,31.021,0,0,0-3.647,1.5c-2.048,1.079-4.1,2.148-6.122,3.279-2.26,1.265-4.514,2.552-6.662,4-.469.312-.929.619-1.392.932-1.34.905-2.7,1.794-4.014,2.724-1.062.745-2.09,1.535-3.124,2.326-.378.291-.734.609-1.09.922a17.041,17.041,0,0,0-2.48,2.589,4.185,4.185,0,0,0-.863,1.748,1.043,1.043,0,0,0-.03.118v.394a1.034,1.034,0,0,0,.816.819,2.325,2.325,0,0,0,.225.068,9.152,9.152,0,0,0,2.428.282q1.713,0,3.427-.095a40.7,40.7,0,0,0,5.191-.621c.547-.1,1.089-.241,1.646-.366a4.265,4.265,0,0,1-.331-1.725,6.559,6.559,0,0,1,.513-2.438,13.342,13.342,0,0,1,2.248-3.637,28.888,28.888,0,0,1,9.127-7.295,80.366,80.366,0,0,1,14.458-5.622c1.7-.477,3.412-.9,5.125-1.281a34.464,34.464,0,0,1,5.375-.741,17.407,17.407,0,0,1,4.6.227,3.587,3.587,0,0,1,1.334.477.983.983,0,0,1,.173,1.591c-.05.053-.1.108-.15.163v.005l.022.028c.032-.012.065-.022.095-.037a1.388,1.388,0,0,0,.741-1.571,2.554,2.554,0,0,0-1.309-1.728,7.338,7.338,0,0,0-2.364-.853,22.577,22.577,0,0,0-4.027-.362q-.673,0-1.347.04" transform="translate(-130.794 -78.026)" fill="none"/>
    </clipPath>
    <linearGradient id="linear-gradient-4" x1="-0.566" y1="1.592" x2="0.684" y2="-0.451" gradientUnits="objectBoundingBox">
      <stop offset="0" stop-color="#081daa"/>
      <stop offset="1" stop-color="#f90808"/>
    </linearGradient>
    <clipPath id="clip-path-4">
      <path id="Контур_1329" data-name="Контур 1329" d="M300.256,132.214a21.024,21.024,0,0,0-3.887.435,31.516,31.516,0,0,0-4.218,1.133,30.8,30.8,0,0,0-5.02,2.233c-1.04.577-2.06,1.191-3.067,1.825a26.73,26.73,0,0,0-2.21,1.525c-1,.768-1.972,1.576-2.942,2.383a10.849,10.849,0,0,0-2.907,3.5,6.963,6.963,0,0,0-.837,3.251,1.8,1.8,0,0,0,1.261,1.785,4.808,4.808,0,0,0,1.555.281,13.749,13.749,0,0,0,3.153-.319,35.361,35.361,0,0,0,4.6-1.3c.423-.145.845-.3,1.267-.451-.464.082-.917.2-1.375.3a10.422,10.422,0,0,1-2.67.25,3.925,3.925,0,0,1-1.488-.335,1.92,1.92,0,0,1-1.065-1.16,2.685,2.685,0,0,1-.047-1.338,6.81,6.81,0,0,1,1.075-2.483,17.11,17.11,0,0,1,2.819-3.271,26.583,26.583,0,0,1,9.384-5.557,22.894,22.894,0,0,1,4.44-1.024,19.4,19.4,0,0,1,5.4.051,11.758,11.758,0,0,1,1.48.312c.4.116.515.343.5.752v0a.719.719,0,0,0,.039-.659,1.781,1.781,0,0,0-.774-.854,7.745,7.745,0,0,0-4.25-1.271q-.105,0-.211,0" transform="translate(-275.168 -132.211)" fill="none"/>
    </clipPath>
    <linearGradient id="linear-gradient-5" x1="-1.005" y1="2.827" x2="-1.001" y2="2.827" gradientUnits="objectBoundingBox">
      <stop offset="0" stop-color="#e52e2d"/>
      <stop offset="1" stop-color="#f51211"/>
    </linearGradient>
    <clipPath id="clip-path-5">
      <path id="Контур_1330" data-name="Контур 1330" d="M319.6,177.47a30.94,30.94,0,0,0-3.937.977c-.412.125-.818.273-1.235.4.514-.07,1.017-.157,1.525-.2a5.8,5.8,0,0,1,2.288.167,2.061,2.061,0,0,1,1.581,1.713,3.559,3.559,0,0,1-.216,1.72,10.2,10.2,0,0,1-1.754,2.988,21.5,21.5,0,0,1-3.793,3.636,26.377,26.377,0,0,1-7.164,3.9,21.652,21.652,0,0,1-8.41,1.318,19.6,19.6,0,0,1-3.091-.4,1.426,1.426,0,0,1-.738-.36h0a1.285,1.285,0,0,0,.6.757,7.322,7.322,0,0,0,3.619,1.318,12.716,12.716,0,0,0,2.768-.076,29.008,29.008,0,0,0,5.61-1.231,34.708,34.708,0,0,0,7.068-3.242,42.227,42.227,0,0,0,7.539-5.612,9.894,9.894,0,0,0,2.129-2.8,6.813,6.813,0,0,0,.817-3.272,1.63,1.63,0,0,0-.865-1.463,3.481,3.481,0,0,0-1.356-.4q-.457-.038-.915-.038a10.978,10.978,0,0,0-2.066.2" transform="translate(-294.654 -177.274)" fill="none"/>
    </clipPath>
    <linearGradient id="linear-gradient-6" x1="-1.087" y1="2.575" x2="-1.083" y2="2.575" gradientUnits="objectBoundingBox">
      <stop offset="0" stop-color="#2e58c5"/>
      <stop offset="1" stop-color="#081daa"/>
    </linearGradient>
  </defs>
  <path id="Контур_1318" data-name="Контур 1318" d="M57,25c0,13.807-25,45-25,45S7,38.807,7,25a25,25,0,0,1,50,0" fill="url(#linear-gradient-2)"/>
  <g id="_1" data-name="1" transform="translate(0 5.227)">
    <g id="Сгруппировать_168" data-name="Сгруппировать 168" clip-path="url(#clip-path)">
      <path id="Контур_1326" data-name="Контур 1326" d="M279.265,82.105A19.769,19.769,0,1,1,259.5,62.336a19.769,19.769,0,0,1,19.769,19.769" transform="translate(-227.606 -62.331)" fill="#fff"/>
    </g>
    <g id="Сгруппировать_169" data-name="Сгруппировать 169" transform="translate(6.911 11.623)" clip-path="url(#clip-path-2)">
      <rect id="Прямоугольник_60" data-name="Прямоугольник 60" width="57.103" height="25.941" transform="translate(-0.014 0)" fill="url(#linear-gradient-3)"/>
    </g>
    <g id="Сгруппировать_170" data-name="Сгруппировать 170" transform="translate(0 1.751)" clip-path="url(#clip-path-3)">
      <rect id="Прямоугольник_61" data-name="Прямоугольник 61" width="57.214" height="25.896" transform="translate(0)" fill="url(#linear-gradient-4)"/>
    </g>
    <g id="Сгруппировать_171" data-name="Сгруппировать 171" transform="translate(16.064 7.78)" clip-path="url(#clip-path-4)">
      <rect id="Прямоугольник_62" data-name="Прямоугольник 62" width="30.448" height="18.366" transform="translate(-0.03)" fill="url(#linear-gradient-5)"/>
    </g>
    <g id="Сгруппировать_172" data-name="Сгруппировать 172" transform="translate(18.231 12.793)" clip-path="url(#clip-path-5)">
      <rect id="Прямоугольник_63" data-name="Прямоугольник 63" width="30.156" height="18.212" transform="translate(0 0)" fill="url(#linear-gradient-6)"/>
    </g>
  </g>
</svg>
