<svg xmlns="http://www.w3.org/2000/svg" width="15.555" height="20"><defs><clipPath id="a"><path data-name="Прямоугольник 21" fill="none" d="M0 0h15.555v20H0z"/></clipPath></defs><g data-name="Сгруппировать 119" clip-path="url(#a)"><path data-name="Контур 1002" d="M14.126 0H1.43A1.43 1.43 0 000 1.43v17.141A1.43 1.43 0 001.43 20h12.7a1.43 1.43 0 001.43-1.43V1.43A1.43 1.43 0 0014.126 0M2.688 3.026h9.987a.722.722 0 110 1.445H2.688a.722.722 0 110-1.445m0 2.986h9.987a.722.722 0 110 1.445H2.688a.722.722 0 110-1.445m-.723 3.709A.723.723 0 012.688 9h6.133a.722.722 0 110 1.445H2.688a.723.723 0 01-.722-.722m11.408 4.711L10.681 17a.721.721 0 01-.987.01l-1.547-1.422a.723.723 0 01.979-1.064l1.048.964 2.2-2.1a.723.723 0 011 1.045" fill="#fff"/></g></svg>