<svg xmlns="http://www.w3.org/2000/svg" xmlns:xlink="http://www.w3.org/1999/xlink" width="74" height="70"><defs><linearGradient id="a" x1="-.376" y1="1.853" x2="-.374" y2="1.853" gradientUnits="objectBoundingBox"><stop offset="0" stop-color="#081daa"/><stop offset="1" stop-color="#f70d0c"/></linearGradient><linearGradient id="b" x1=".08" y1=".043" x2="1" y2=".971" gradientUnits="objectBoundingBox"><stop offset="0" stop-color="#2e58c5"/><stop offset=".898" stop-color="#212999"/><stop offset="1" stop-color="#202797"/></linearGradient><linearGradient id="e" x1="1.198" y1="-.297" x2=".021" y2=".87" xlink:href="#a"/><linearGradient id="g" x1="-.566" y1="1.592" x2=".684" y2="-.451" gradientUnits="objectBoundingBox"><stop offset="0" stop-color="#081daa"/><stop offset="1" stop-color="#f90808"/></linearGradient><linearGradient id="i" x1="-1.005" y1="2.827" x2="-1.001" y2="2.827" gradientUnits="objectBoundingBox"><stop offset="0" stop-color="#e52e2d"/><stop offset="1" stop-color="#f51211"/></linearGradient><linearGradient id="k" x1="-1.087" y1="2.575" x2="-1.083" y2="2.575" gradientUnits="objectBoundingBox"><stop offset="0" stop-color="#2e58c5"/><stop offset="1" stop-color="#081daa"/></linearGradient><clipPath id="c"><path data-name="Прямоугольник 59" fill="none" opacity=".9" d="M0 0h64v39.539H0z"/></clipPath><clipPath id="d"><path data-name="Контур 1327" d="M193.793 188.11l.02-.007.005-.022-.025.029m49.732-21.279a46.218 46.218 0 00-5.748.68c-.5.093-1 .227-1.516.345a4.173 4.173 0 01.323 1.45 6.411 6.411 0 01-.527 2.776 14.248 14.248 0 01-2.582 4 29.643 29.643 0 01-9.263 7.126 82.266 82.266 0 01-14.791 5.6c-1.363.37-2.745.72-4.13 1.019-1.056.222-2.131.37-3.2.527a26.251 26.251 0 01-4.552.275 12.46 12.46 0 01-2.89-.4 2.4 2.4 0 01-.979-.481.909.909 0 01-.2-1.2 4.971 4.971 0 01.328-.434 1.351 1.351 0 00-.886 1.2 2.2 2.2 0 00.762 1.713 5.377 5.377 0 002.292 1.13 16.706 16.706 0 004.037.5 28.164 28.164 0 004.323-.211c1.757-.235 3.519-.456 5.259-.791a67.5 67.5 0 009.634-2.679 45.785 45.785 0 006.155-2.565 159.948 159.948 0 007.367-4.086c1.442-.855 2.86-1.751 4.279-2.642.753-.473 1.487-.975 2.23-1.463.627-.413 1.267-.809 1.886-1.234a59.862 59.862 0 004.89-3.67 19.223 19.223 0 003.062-3.075 4.348 4.348 0 00.863-1.668.954.954 0 00.023-.076 1.089 1.089 0 00.027-.137v-.288a1.1 1.1 0 00-.811-.92 6.477 6.477 0 00-1.64-.319q-1-.076-2.01-.076t-2.01.076" transform="translate(-192.906 -166.755)" fill="url(#a)"/></clipPath><clipPath id="f"><path data-name="Контур 1328" d="M178.81 78.066a54.985 54.985 0 00-6.711.791c-.949.153-1.889.373-2.825.594a75.391 75.391 0 00-9.054 2.755 31.021 31.021 0 00-3.647 1.5c-2.048 1.079-4.1 2.148-6.122 3.279-2.26 1.265-4.514 2.552-6.662 4-.469.312-.929.619-1.392.932-1.34.905-2.7 1.794-4.014 2.724-1.062.745-2.09 1.535-3.124 2.326-.378.291-.734.609-1.09.922a17.041 17.041 0 00-2.48 2.589 4.185 4.185 0 00-.863 1.748 1.043 1.043 0 00-.03.118v.394a1.034 1.034 0 00.816.819 2.325 2.325 0 00.225.068 9.152 9.152 0 002.428.282q1.713 0 3.427-.095a40.7 40.7 0 005.191-.621c.547-.1 1.089-.241 1.646-.366a4.265 4.265 0 01-.331-1.725 6.559 6.559 0 01.513-2.438 13.342 13.342 0 012.248-3.637 28.888 28.888 0 019.127-7.295 80.366 80.366 0 0114.458-5.622c1.7-.477 3.412-.9 5.125-1.281a34.464 34.464 0 015.375-.741 17.407 17.407 0 014.6.227 3.587 3.587 0 011.334.477.983.983 0 01.173 1.591l-.15.163v.005l.022.028c.032-.012.065-.022.095-.037a1.388 1.388 0 00.741-1.571 2.554 2.554 0 00-1.309-1.728 7.338 7.338 0 00-2.364-.853 22.577 22.577 0 00-4.027-.362q-.673 0-1.347.04" transform="translate(-130.794 -78.026)" fill="none"/></clipPath><clipPath id="h"><path data-name="Контур 1329" d="M300.256 132.214a21.024 21.024 0 00-3.887.435 31.516 31.516 0 00-4.218 1.133 30.8 30.8 0 00-5.02 2.233 64.48 64.48 0 00-3.067 1.825 26.73 26.73 0 00-2.21 1.525c-1 .768-1.972 1.576-2.942 2.383a10.849 10.849 0 00-2.907 3.5 6.963 6.963 0 00-.837 3.251 1.8 1.8 0 001.261 1.785 4.808 4.808 0 001.555.281 13.749 13.749 0 003.153-.319 35.361 35.361 0 004.6-1.3c.423-.145.845-.3 1.267-.451-.464.082-.917.2-1.375.3a10.422 10.422 0 01-2.67.25 3.925 3.925 0 01-1.488-.335 1.92 1.92 0 01-1.065-1.16 2.685 2.685 0 01-.047-1.338 6.81 6.81 0 011.075-2.483 17.11 17.11 0 012.819-3.271 26.583 26.583 0 019.384-5.557 22.894 22.894 0 014.44-1.024 19.4 19.4 0 015.4.051 11.758 11.758 0 011.48.312c.4.116.515.343.5.752a.719.719 0 00.039-.659 1.781 1.781 0 00-.774-.854 7.745 7.745 0 00-4.25-1.271h-.211" transform="translate(-275.168 -132.211)" fill="none"/></clipPath><clipPath id="j"><path data-name="Контур 1330" d="M319.6 177.47a30.94 30.94 0 00-3.937.977c-.412.125-.818.273-1.235.4.514-.07 1.017-.157 1.525-.2a5.8 5.8 0 012.288.167 2.061 2.061 0 011.581 1.713 3.559 3.559 0 01-.216 1.72 10.2 10.2 0 01-1.754 2.988 21.5 21.5 0 01-3.793 3.636 26.377 26.377 0 01-7.164 3.9 21.652 21.652 0 01-8.41 1.318 19.6 19.6 0 01-3.091-.4 1.426 1.426 0 01-.738-.36 1.285 1.285 0 00.6.757 7.322 7.322 0 003.619 1.318 12.716 12.716 0 002.768-.076 29.008 29.008 0 005.61-1.231 34.708 34.708 0 007.068-3.242 42.227 42.227 0 007.539-5.612 9.894 9.894 0 002.129-2.8 6.813 6.813 0 00.817-3.272 1.63 1.63 0 00-.865-1.463 3.481 3.481 0 00-1.356-.4q-.457-.038-.915-.038a10.978 10.978 0 00-2.066.2" transform="translate(-294.654 -177.274)" fill="none"/></clipPath></defs><path data-name="Контур 1318" d="M57 25c0 13.807-25 45-25 45S7 38.807 7 25a25 25 0 0150 0" transform="translate(5)" fill="url(#b)"/><g data-name="1"><g data-name="Сгруппировать 168" transform="translate(5 5.227)" clip-path="url(#c)"><path data-name="Контур 1326" d="M51.659 19.774A19.769 19.769 0 1131.894.005a19.769 19.769 0 0119.769 19.769" fill="#fff"/></g><g data-name="Сгруппировать 169" transform="translate(16.911 16.85)" clip-path="url(#d)"><path data-name="Прямоугольник 60" transform="translate(-.014)" fill="url(#e)" d="M0 0h57.103v25.941H0z"/></g><g data-name="Сгруппировать 170" transform="translate(0 6.978)" clip-path="url(#f)"><path data-name="Прямоугольник 61" fill="url(#g)" d="M0 0h57.214v25.896H0z"/></g><g data-name="Сгруппировать 171" transform="translate(22.064 13.007)" clip-path="url(#h)"><path data-name="Прямоугольник 62" transform="translate(-.03)" fill="url(#i)" d="M0 0h30.448v18.366H0z"/></g><g data-name="Сгруппировать 172" transform="translate(21.231 18.02)" clip-path="url(#j)"><path data-name="Прямоугольник 63" fill="url(#k)" d="M0 0h30.156v18.212H0z"/></g></g></svg>