<svg data-name="Лого Пластилин Белый (5)" xmlns="http://www.w3.org/2000/svg" width="93.859" height="20"><g data-name="Сгруппировать 204"><path d="M1.966 10.088c-.1-3.963 6.154-3.963 6.09-.032a2.854 2.854 0 01-3.029 2.964 2.853 2.853 0 01-3.061-2.932m-.483-3.577a4.847 4.847 0 00-1.482 3.544v8.99a.983.983 0 001.965 0v-4.994c3.125 2.545 8.216.064 8.055-4a5.039 5.039 0 00-5.155-5.022 4.725 4.725 0 00-3.383 1.482" fill="#fff" data-name="Сгруппировать 203"/></g><g data-name="Сгруппировать 206"><path d="M11.472 1.002v13.017a1 1 0 001.708.709.947.947 0 00.29-.709V1.002a.937.937 0 00-.998-.967.956.956 0 00-1 .967" fill="#fff" data-name="Сгруппировать 205"/></g><g data-name="Сгруппировать 208"><path d="M22.844 9.991a2.95 2.95 0 11-5.9 0 2.916 2.916 0 013-3.029 2.855 2.855 0 012.9 3.029m-6.476-3.512c-4.414 4.318 1.708 11.218 6.541 7.508a.983.983 0 001.965 0v-3.931a4.955 4.955 0 00-5.091-5.059 4.6 4.6 0 00-3.415 1.482" fill="#fff" data-name="Сгруппировать 207"/></g><g data-name="Сгруппировать 210"><path d="M26.099 7.997a2.819 2.819 0 002.932 3c2.255.322.226 3.383-1 1.45-1.482-2.223-2.964.58-.87 1.933 2.835 2.384 6.637-1.965 4-4.479-.741-.967-1.965-.612-2.835-1.192-1.16-1.128 1.063-2.545 1.643-1.192 1.8 2.739 3.512-2.288-.934-2.513h-.064a2.839 2.839 0 00-2.872 2.993" fill="#fff" data-name="Сгруппировать 209"/></g><g data-name="Сгруппировать 212"><path d="M36.313.006c-1.708-.1-.741 4.092-.967 4.994h-.447c-.838-.032-2-.064-2 1-.032 1.063 1.16 1.031 2 1h.419v7.056a.983.983 0 101.965 0V6.962h1.416a.937.937 0 00.967-1 .937.937 0 00-.967-1h-1.418c-.193-.838.741-4.962-.87-4.962h-.1" fill="#fff" data-name="Сгруппировать 211"/></g><g data-name="Сгруппировать 214"><path d="M40.76 5.963c.1.258-.29 8.957.29 8.764a.984.984 0 001.675-.709V5.963a.983.983 0 00-1.965 0m1.031-4.962a.937.937 0 00-.967 1 .937.937 0 00.967 1 .921.921 0 00.967-1 .976.976 0 00-.967-1" fill="#fff" data-name="Сгруппировать 213"/></g><g data-name="Сгруппировать 216"><path d="M44.305 1.002v13.017a1 1 0 001.708.709.948.948 0 00.29-.709V1.002a.937.937 0 00-1-.967.974.974 0 00-1 .967" fill="#fff" data-name="Сгруппировать 215"/></g><g data-name="Сгруппировать 218"><path d="M47.848 5.963v8.055a1 1 0 001 1 .977.977 0 00.967-1V5.963a.983.983 0 00-1.965 0m1-4.962a.937.937 0 00-.967 1 .937.937 0 00.967 1 .921.921 0 00.967-1 .937.937 0 00-.967-1" fill="#fff" data-name="Сгруппировать 217"/></g><g data-name="Сгруппировать 220"><path d="M51.296 14.019a.983.983 0 001.965 0V9.991c-.1-3.963 6.154-3.931 6.09 0v4.028a.983.983 0 001.965 0c.226-3.931.193-8.893-5.026-9.054-5.188.161-5.22 5.091-4.994 9.054" fill="#fff" data-name="Сгруппировать 219"/></g><g data-name="Сгруппировать 221" fill="#fff"><path data-name="Контур 1360" d="M13.823 19.914h-.354l-.612-2.062a2.614 2.614 0 01-.1-.354c-.032-.129-.064-.226-.064-.258a5.811 5.811 0 01-.161.612l-.612 2.062h-.354l-.836-3.093h.387l.483 1.9c.064.258.129.516.161.741a6.6 6.6 0 01.161-.773l.548-1.868h.419l.58 1.9a4.238 4.238 0 01.161.741 4.475 4.475 0 01.161-.741l.483-1.9h.387z"/><path data-name="Контур 1361" d="M23.038 19.914h-1.74v-3.093h1.74v.322h-1.353v1h1.289v.322h-1.289v1.128h1.353z"/><path data-name="Контур 1362" d="M29.901 16.821h.87a1.631 1.631 0 01.9.193.651.651 0 01.29.58.7.7 0 01-.161.451.676.676 0 01-.451.226v.032c.483.1.709.322.709.741a.768.768 0 01-.29.644 1.164 1.164 0 01-.773.226h-1.094v-3.093zm.354 1.321h.58a.806.806 0 00.548-.129.508.508 0 00.161-.419.459.459 0 00-.193-.387 1.287 1.287 0 00-.58-.129h-.516zm0 .322v1.157h.646a.782.782 0 00.58-.161.541.541 0 00.193-.451.479.479 0 00-.193-.419.969.969 0 00-.58-.129z"/><path data-name="Контур 1363" d="M47.945 19.109a.811.811 0 01-.29.644 1.2 1.2 0 01-.806.226 1.986 1.986 0 01-.838-.129v-.354a1.6 1.6 0 00.419.129 2.128 2.128 0 00.451.032.922.922 0 00.548-.129.459.459 0 00.193-.387.607.607 0 00-.064-.258.7.7 0 00-.226-.193 2.077 2.077 0 00-.451-.193 1.531 1.531 0 01-.612-.354.758.758 0 01-.193-.548.807.807 0 01.258-.58 1.238 1.238 0 01.709-.226 2.282 2.282 0 01.838.161l-.1.322a2.2 2.2 0 00-.741-.161.63.63 0 00-.451.129.462.462 0 00-.161.354.607.607 0 00.064.258.547.547 0 00.193.193 1.724 1.724 0 00.419.193 1.624 1.624 0 01.677.387.667.667 0 01.164.484z"/><path data-name="Контур 1364" d="M55.678 19.914h-.354v-2.771h-.967v-.322h2.32v.322h-.967l-.032 2.771z"/><path data-name="Контур 1365" d="M65.634 16.821v2a1.048 1.048 0 01-.322.838 1.29 1.29 0 01-.87.29 1.182 1.182 0 01-.87-.29 1.151 1.151 0 01-.29-.838v-2h.354v2.03a.689.689 0 00.226.58.872.872 0 00.612.193.929.929 0 00.612-.193.825.825 0 00.226-.612v-2.03h.322z"/><path data-name="Контур 1366" d="M75.107 18.335a1.465 1.465 0 01-.419 1.16 1.725 1.725 0 01-1.192.419h-.87v-3.093h.934a1.545 1.545 0 011.128.387 1.483 1.483 0 01.419 1.127zm-.387.032a1.214 1.214 0 00-.29-.9 1.275 1.275 0 00-.9-.322h-.516v2.476h.451a1.3 1.3 0 00.967-.322 1.409 1.409 0 00.288-.931z"/><path data-name="Контур 1367" d="M81.97 19.914v-3.093h.354v3.093z"/><path data-name="Контур 1368" d="M92.024 18.368a1.682 1.682 0 01-.387 1.16 1.314 1.314 0 01-1.031.419 1.339 1.339 0 01-1.063-.419 1.713 1.713 0 01-.387-1.192 1.576 1.576 0 01.387-1.16 1.339 1.339 0 011.063-.419 1.229 1.229 0 011.031.419 1.572 1.572 0 01.387 1.192zm-2.449 0a1.644 1.644 0 00.258.967.955.955 0 00.773.322.876.876 0 00.773-.322 1.644 1.644 0 00.258-.967 1.47 1.47 0 00-.258-.934.966.966 0 00-.773-.322.876.876 0 00-.773.322 1.47 1.47 0 00-.258.934z"/></g><g data-name="Сгруппировать 222" fill="#e55030"><path data-name="Контур 1369" d="M79.166 13.987c.064 1.321-1.933 1.257-1.965 0-4.833 3.705-10.955-3.19-6.541-7.507 2.964-3.19 8.732-.838 8.506 3.577v3.931zm-4.93-.967c3.9.129 3.834-6.122 0-6.058-3.931-.064-4.06 6.186 0 6.058"/><path data-name="Контур 1370" d="M82.518 14.019a.983.983 0 01-1.965 0V9.991c-.644-2.771 4.994-7.121 6.025-4.028a1.026 1.026 0 01-1 1c-3.705-.1-3.029 4.64-3.061 7.056"/><path data-name="Контур 1371" d="M92.894 4.997a.983.983 0 010 1.965h-1.418v7.057a1.025 1.025 0 01-1 1 1 1 0 01-.967-1V6.963c-.806 0-2.449.258-2.417-1-.032-1.224 1.643-.967 2.417-.967.226-.9-.741-5.091.967-4.994 1.708-.129.773 4.092 1 4.994z"/></g></svg>