<svg xmlns="http://www.w3.org/2000/svg" xmlns:xlink="http://www.w3.org/1999/xlink" width="193.76" height="40"><defs><linearGradient id="a" x1="-.376" y1="1.853" x2="-.374" y2="1.853" gradientUnits="objectBoundingBox"><stop offset="0" stop-color="#081daa"/><stop offset="1" stop-color="#f70d0c"/></linearGradient><linearGradient id="d" x1="1.198" y1="-.297" x2=".021" y2=".87" xlink:href="#a"/><linearGradient id="f" x1="-.566" y1="1.592" x2=".684" y2="-.451" gradientUnits="objectBoundingBox"><stop offset="0" stop-color="#081daa"/><stop offset="1" stop-color="#f90808"/></linearGradient><linearGradient id="h" x1="-1.005" y1="2.827" x2="-1.001" y2="2.827" gradientUnits="objectBoundingBox"><stop offset="0" stop-color="#e52e2d"/><stop offset="1" stop-color="#f51211"/></linearGradient><linearGradient id="j" x1="-1.087" y1="2.575" x2="-1.083" y2="2.575" gradientUnits="objectBoundingBox"><stop offset="0" stop-color="#2e58c5"/><stop offset="1" stop-color="#081daa"/></linearGradient><clipPath id="b"><path data-name="Прямоугольник 31" fill="none" opacity=".9" d="M0 0h43.802v27.06H0z"/></clipPath><clipPath id="c"><path data-name="Контур 1278" d="M193.513 181.371h.014v-.015l-.017.02m34.037-14.563a31.631 31.631 0 00-3.934.465c-.345.064-.685.155-1.037.236a2.856 2.856 0 01.221.992 4.388 4.388 0 01-.361 1.9 9.751 9.751 0 01-1.767 2.737 20.288 20.288 0 01-6.339 4.877 56.3 56.3 0 01-10.123 3.831c-.933.253-1.879.493-2.827.7-.723.152-1.459.254-2.191.361a17.965 17.965 0 01-3.116.189 8.527 8.527 0 01-1.978-.271 1.642 1.642 0 01-.67-.329.622.622 0 01-.139-.824 3.4 3.4 0 01.224-.3.925.925 0 00-.606.821 1.507 1.507 0 00.521 1.173 3.68 3.68 0 001.569.773 11.434 11.434 0 002.763.344 19.277 19.277 0 002.959-.144c1.2-.161 2.408-.312 3.6-.541a46.2 46.2 0 006.594-1.834 31.335 31.335 0 004.212-1.755c1.7-.895 3.389-1.815 5.042-2.8.987-.585 1.957-1.2 2.929-1.809.515-.324 1.017-.668 1.526-1 .429-.282.867-.554 1.291-.844a40.971 40.971 0 003.346-2.512 13.156 13.156 0 002.1-2.1 2.976 2.976 0 00.591-1.142l.016-.052a.742.742 0 00.019-.094v-.2a.754.754 0 00-.555-.629 4.433 4.433 0 00-1.122-.218q-.687-.052-1.376-.052t-1.376.052" transform="translate(-192.906 -166.755)" fill="url(#a)"/></clipPath><clipPath id="e"><path data-name="Контур 1279" d="M163.656 78.053a37.633 37.633 0 00-4.593.541c-.65.1-1.293.255-1.933.407a51.6 51.6 0 00-6.2 1.885 21.23 21.23 0 00-2.5 1.026c-1.4.739-2.808 1.47-4.19 2.244-1.547.866-3.089 1.746-4.56 2.739-.321.214-.636.424-.953.638-.917.62-1.846 1.228-2.747 1.864-.727.51-1.431 1.051-2.138 1.592-.259.2-.5.417-.746.631a11.663 11.663 0 00-1.7 1.772 2.864 2.864 0 00-.591 1.2.716.716 0 00-.021.081v.27a.707.707 0 00.558.561 1.588 1.588 0 00.154.047 6.263 6.263 0 001.661.193q1.173 0 2.345-.065a27.856 27.856 0 003.553-.425c.374-.07.745-.165 1.127-.251a2.919 2.919 0 01-.226-1.181 4.489 4.489 0 01.351-1.669 9.132 9.132 0 011.539-2.49 19.771 19.771 0 016.246-4.993 55 55 0 019.9-3.848 67.569 67.569 0 013.508-.877 23.587 23.587 0 013.678-.507 11.913 11.913 0 013.148.155 2.455 2.455 0 01.913.327.673.673 0 01.118 1.089 2.106 2.106 0 00-.1.112l.015.019c.022-.008.044-.015.065-.025a.95.95 0 00.507-1.075 1.748 1.748 0 00-.9-1.183 5.022 5.022 0 00-1.618-.584 15.453 15.453 0 00-2.756-.248q-.461 0-.922.027" transform="translate(-130.794 -78.026)" fill="none"/></clipPath><clipPath id="g"><path data-name="Контур 1280" d="M292.339 132.213a14.388 14.388 0 00-2.66.3 21.568 21.568 0 00-2.887.776 21.077 21.077 0 00-3.436 1.528c-.712.395-1.41.815-2.1 1.249a18.3 18.3 0 00-1.513 1.044c-.685.526-1.349 1.079-2.013 1.631a7.425 7.425 0 00-1.99 2.393 4.766 4.766 0 00-.573 2.225 1.229 1.229 0 00.863 1.221 3.291 3.291 0 001.064.192 9.411 9.411 0 002.158-.218 24.2 24.2 0 003.147-.887c.29-.1.578-.206.867-.308-.318.056-.628.139-.941.2a7.134 7.134 0 01-1.828.171 2.686 2.686 0 01-1.018-.229 1.314 1.314 0 01-.729-.794 1.837 1.837 0 01-.032-.916 4.662 4.662 0 01.736-1.7 11.712 11.712 0 011.929-2.239 18.194 18.194 0 016.422-3.8 15.668 15.668 0 013.039-.7 13.28 13.28 0 013.693.035 8.047 8.047 0 011.013.214c.276.079.353.234.341.515a.492.492 0 00.027-.451 1.219 1.219 0 00-.529-.585 5.3 5.3 0 00-2.909-.87h-.144" transform="translate(-275.168 -132.211)" fill="none"/></clipPath><clipPath id="i"><path data-name="Контур 1281" d="M311.726 177.408a21.179 21.179 0 00-2.694.668c-.282.086-.56.187-.845.277.352-.048.7-.107 1.044-.138a3.969 3.969 0 011.566.115 1.411 1.411 0 011.082 1.173 2.436 2.436 0 01-.148 1.177 6.981 6.981 0 01-1.2 2.045 14.715 14.715 0 01-2.6 2.489 18.052 18.052 0 01-4.9 2.669 14.818 14.818 0 01-5.756.9 13.411 13.411 0 01-2.115-.271.976.976 0 01-.505-.246.879.879 0 00.409.518 5.011 5.011 0 002.477.9 8.7 8.7 0 001.894-.052 19.857 19.857 0 003.84-.842 23.756 23.756 0 004.838-2.219 28.9 28.9 0 005.16-3.841 6.771 6.771 0 001.457-1.916 4.663 4.663 0 00.559-2.24 1.116 1.116 0 00-.592-1 2.382 2.382 0 00-.928-.275q-.313-.026-.626-.026a7.515 7.515 0 00-1.414.134" transform="translate(-294.654 -177.274)" fill="none"/></clipPath></defs><g data-name="2" fill="#fff"><path data-name="Контур 1266" d="M145.676 28.63h-3.288v-7.992a1.581 1.581 0 00-.117-.6 7.543 7.543 0 00-.657 1.692c-.19.565-.364 1.134-.547 1.7l-.566 1.75q-.275.85-.547 1.7l-.566 1.758H135.3c-.116-.4-.16-15.681-.046-16.584 1.066-.07 2.141-.028 3.28-.027v4.984c0 .822-.006 1.62.007 2.513a.847.847 0 00.4-.6q1.115-3.173 2.218-6.351c.193-.552.195-.552.781-.552h3.676c.13.426.18 15.651.061 16.612"/><path data-name="Контур 1267" d="M91.964 12.07v1.971h-1.889v14.594h-3.672V14.173a19.89 19.89 0 00-4.063-.071c-.017.219-.05.454-.051.689v13.831h-3.626c-.012-.226-.034-.446-.034-.666v-13.17c0-.222-.022-.444-.036-.721h-1.825a4.67 4.67 0 01-.08-1.953c.364-.114 14.354-.162 15.276-.043"/><path data-name="Контур 1268" d="M107.602 12.045l3.1 16.585h-4.014l-.342-2.135c-.1-.656-.221-1.31-.309-1.968-.04-.3-.2-.376-.472-.37-.375.007-.751-.005-1.126 0-.422.01-.443.025-.511.438-.18 1.086-.35 2.174-.526 3.262-.039.24-.084.479-.123.705a21.118 21.118 0 01-4.012.011l3.086-16.53zm-2.622 5.123a42.957 42.957 0 00-.644 4.777h1.289a46.12 46.12 0 00-.649-4.778"/><path data-name="Контур 1269" d="M118.197 12.061a2.669 2.669 0 01.318-.04c1.876.025 3.752.026 5.626.093a8.078 8.078 0 011.836.338 2.076 2.076 0 011.594 1.9 2.964 2.964 0 01.038.365q-.008 2.646-.025 5.293a2.351 2.351 0 01-.091.567 2.024 2.024 0 01-1.557 1.57 15.008 15.008 0 01-1.845.3c-.46.05-.928.027-1.393.036-.556.01-.583.028-.586.557-.005.944 0 1.887 0 2.831v2.79c-1.332.016-2.605.007-3.913.006zm4.01 2.269a44.01 44.01 0 00-.009 5.832c.955.157 1.454-.222 1.469-1.125.009-.558.006-1.116 0-1.674 0-.7-.008-1.395-.011-2.092a.8.8 0 00-.393-.754 1.379 1.379 0 00-1.06-.188"/><path data-name="Контур 1270" d="M177.67 28.634h-7.94c-.116-.414-.149-15.9-.031-16.6 2.607-.035 5.226-.007 7.83-.018a4.637 4.637 0 01.073 1.964 4.506 4.506 0 01-1.253.061c-.429.014-.859 0-1.288 0h-1.258a27.546 27.546 0 00-.04 4.659c1.118.035 2.256 0 3.461.022a17.915 17.915 0 01.02 1.833c-.207.018-.394.047-.58.048-.769.006-1.539 0-2.308 0-.193 0-.386.022-.564.033a49.537 49.537 0 00-.035 5.992c1.277.111 2.576-.011 3.911.072a13.647 13.647 0 010 1.926"/><path data-name="Контур 1271" d="M155.623 14.081h-2.309v-1.962c.36-.124 8.023-.158 8.683-.03v1.961h-2.258c-.023.288-.057.523-.057.757v13.816h-4.035c-.046-1.2-.015-2.4-.02-3.6s0-2.413 0-3.62v-7.324z"/><path data-name="Контур 1272" d="M191.404 28.64h-3.991c-.049-.694-.017-1.371-.023-2.045-.006-.7 0-1.4 0-2.1V14.119c-.778-.128-1.529 0-2.311-.085v-1.918c.368-.123 8.07-.151 8.681-.025v1.96h-2.263c-.021.29-.053.525-.053.761V27.98c0 .218-.025.436-.038.66"/></g><g data-name="1"><path data-name="Контур 1264" d="M3.613 40c.028-.359.07-.694.076-1.029a8.076 8.076 0 00-.589-3.248c-.5-1.214-1.059-2.4-1.579-3.612-.389-.9-.781-1.806-1.128-2.725a6.545 6.545 0 01-.344-3.076c.051-.46.059-.924.095-1.385a30.768 30.768 0 01.74-4.673c.132-.563.266-1.126.421-1.683a5.2 5.2 0 01.63-1.4c1.427-2.248 2.779-4.541 4.121-6.84.1-.171.208-.338.323-.5a2.376 2.376 0 01.274-.32.645.645 0 01.988-.027 2.744 2.744 0 01.683.935 4.353 4.353 0 01.394 1.529c.037.493.026.99.037 1.485a1.268 1.268 0 000 .148c.02.145.084.192.221.146a2.261 2.261 0 00.293-.133 5.794 5.794 0 001.847-1.515c.228-.273.45-.552.689-.814a10.059 10.059 0 01.75-.757c.52-.46.958-.371 1.268.252a3.835 3.835 0 01.358 1.435 3.546 3.546 0 01-.488 1.995c-.134.247-.282.486-.422.73a1.448 1.448 0 00-.106.2c-.043.112 0 .18.12.181a1.526 1.526 0 00.319-.038 3.164 3.164 0 00.916-.37c.287-.163.565-.345.86-.494a3.844 3.844 0 01.712-.276.616.616 0 01.382.041c.273.121.287.289.045.516-.242-.179-.486-.073-.736.025a18.207 18.207 0 01-2.386.83 1.736 1.736 0 01-.265.063 1.179 1.179 0 00-.712.357q-1.316 1.19-2.651 2.357a.579.579 0 00-.213.491 9.3 9.3 0 01-.382 2.914 5.727 5.727 0 01-.688 1.452c-.04.06-.087.116-.158.211l-.239-.5c.056-.077.113-.157.171-.235a4.395 4.395 0 00.934-2.987 5.787 5.787 0 00-.365-1.64 9.147 9.147 0 01-.081-.233.2.2 0 01.007-.048 1.1 1.1 0 01.112.07.48.48 0 00.694.052 10.885 10.885 0 001.849-1.298 16.887 16.887 0 001.277-1.246 5.046 5.046 0 001.192-2.47 2.745 2.745 0 00-.039-1.157 1.384 1.384 0 00-.06-.189.633.633 0 00-1.026-.357 1.676 1.676 0 00-.264.184c-.435.381-.881.751-1.3 1.152a28.425 28.425 0 01-2.565 2.227 2.8 2.8 0 00-.727.833 9.017 9.017 0 01-.658.929.986.986 0 00-.2.441 9.829 9.829 0 01-1.685 3.853l-.054.077a1.514 1.514 0 01-.954-.878l.247.086a.769.769 0 00.994-.324 5.817 5.817 0 00.469-.926 8.435 8.435 0 00.606-3.1 3.071 3.071 0 01.031-.5 1.4 1.4 0 00.092.158 1.556 1.556 0 00.221.263c.127.106.193.092.278-.048a7.566 7.566 0 001.083-2.7 3.75 3.75 0 00-.577-2.677c-.283-.448-.566-.454-.887-.033a4.709 4.709 0 00-.26.392l-3.737 6.088c-.29.472-.585.941-.869 1.416a1.98 1.98 0 00-.2.45 36.545 36.545 0 00-1.231 5.689 45.691 45.691 0 00-.255 2.889 5.565 5.565 0 00.316 1.978 15.1 15.1 0 001.073 2.45q1.3 2.54 2.433 5.158a4.969 4.969 0 01.453 1.514 2.6 2.6 0 01-.03.762A1.436 1.436 0 013.613 40" fill="#fff"/><path data-name="Контур 1265" d="M56.318 6.442c.259-.072.36-.273.474-.495a.421.421 0 01.036.269 8.808 8.808 0 00.637 3.39c.092.221.2.437.308.649a1.656 1.656 0 00.225.325.724.724 0 00.782.243c.126-.035.248-.081.405-.133a1.923 1.923 0 01-.091.189 1.668 1.668 0 01-.691.623c-.185.088-.207.084-.324-.086A10.122 10.122 0 0156.694 8.6c-.1-.34-.166-.691-.258-1.034a.826.826 0 00-.145-.3 6.76 6.76 0 01-.775-1.12 1.868 1.868 0 00-.536-.611 30.641 30.641 0 01-2.964-2.6c-.346-.341-.739-.637-1.113-.949a1.2 1.2 0 00-.232-.143.608.608 0 00-.925.344 2.322 2.322 0 00-.128.477 3.4 3.4 0 00.263 1.841 6.05 6.05 0 001.548 2.217 13.176 13.176 0 002.455 1.842c.375.218.442.211.794-.062a.652.652 0 01.094-.045c-.034.1-.058.174-.086.248a5.777 5.777 0 00-.391 1.81 4.252 4.252 0 00.9 2.8.471.471 0 01.056.635 1.448 1.448 0 00-.08.151 1.236 1.236 0 01-.118-.126 6.159 6.159 0 01-.953-2.4 9.937 9.937 0 01-.157-2.074.476.476 0 00-.179-.406c-.955-.842-1.9-1.692-2.858-2.536a.627.627 0 00-.272-.159 14.565 14.565 0 01-2.665-.85l-.393-.153a.624.624 0 00-.526-.014c-.166.08-.2-.094-.273-.169a.468.468 0 01.5-.363 1.452 1.452 0 01.681.208c.341.187.675.386 1.013.577a3.169 3.169 0 001.037.4.281.281 0 00.073.014c.079-.01.181 0 .23-.043.081-.074.008-.168-.036-.246-.187-.331-.386-.656-.563-.992a3.587 3.587 0 01-.149-3 2.055 2.055 0 01.236-.462.616.616 0 01.941-.193 1.255 1.255 0 01.235.182c.311.32.623.639.923.969s.556.656.845.974A5.3 5.3 0 0054.362 4.4c.312.153.4.1.384-.255a7.532 7.532 0 01.2-2.362 3.355 3.355 0 01.7-1.354 1.438 1.438 0 01.506-.391.442.442 0 01.378 0 1.351 1.351 0 01.582.524c.19.28.369.569.539.862a200.433 200.433 0 003.907 6.478 6.607 6.607 0 01.809 2.016 39.944 39.944 0 01.828 4.232 28.765 28.765 0 01.254 4.206 5.025 5.025 0 01-.36 1.816c-.42 1.033-.86 2.059-1.3 3.084-.482 1.124-.986 2.239-1.458 3.367a8 8 0 00-.49 2.171 5.974 5.974 0 00.045 1.8.783.783 0 010 .12.854.854 0 01-.158-.043 1.462 1.462 0 01-.88-1.333 2.665 2.665 0 01.151-1.05c.235-.618.466-1.239.746-1.836.738-1.571 1.5-3.129 2.252-4.7.228-.477.451-.958.648-1.448a6.96 6.96 0 00.474-3.207 35.888 35.888 0 00-.785-5.244c-.2-.853-.435-1.7-.652-2.546a2.182 2.182 0 00-.264-.594q-2.034-3.292-4.062-6.588c-.2-.331-.395-.67-.6-1a2.23 2.23 0 00-.322-.407.346.346 0 00-.546.007 1.649 1.649 0 00-.251.336 3.779 3.779 0 00-.456 2.795 8.151 8.151 0 001.067 2.5.7.7 0 00.079.087" fill="#fff"/><path data-name="Контур 1273" d="M6.99 25.937c.011-.181.016-.329.028-.477a3.614 3.614 0 00-1-2.813 3.314 3.314 0 00-1.977-1.1 2.712 2.712 0 00-1.08.021.765.765 0 00-.118.036.4.4 0 00-.072.058c.046.2.1.409.139.618.086.438.165.877.251 1.315.032.163.057.176.218.154a.7.7 0 00.669-.7 2.665 2.665 0 00-.134-.9 1.845 1.845 0 01-.067-.31 4.863 4.863 0 01.6 1.4.989.989 0 01.014.222.458.458 0 01-.349.483 2.54 2.54 0 01-.488.064c-.113.009-.228 0-.357 0a1.453 1.453 0 000 .232 24.4 24.4 0 00.592 2.838 5.669 5.669 0 00.33.826.571.571 0 00.657.372 28.635 28.635 0 01.472 4.662c-.02-.074-.042-.148-.058-.223a14.666 14.666 0 00-1.61-4.3 1.036 1.036 0 01-.111-.424 21.687 21.687 0 00-.648-3.808 14.052 14.052 0 00-.906-2.463 4.948 4.948 0 01-.084-.18.242.242 0 010-.065 1.741 1.741 0 01.673-.379 2.744 2.744 0 012.1.132 4.51 4.51 0 012.356 2.561 4.31 4.31 0 01.3 1.35.269.269 0 00.152.256 3.231 3.231 0 011 .875 5.326 5.326 0 01.845 1.479c.042.114.086.205.23.22a3.062 3.062 0 011.517.687 8.226 8.226 0 011.722 1.807 11.284 11.284 0 011.907 4.084c.066.288.1.582.153.874l-.052.011c-.02-.077-.039-.155-.061-.232a12.842 12.842 0 00-3.261-5.65 5.585 5.585 0 00-1.067-.845 2.612 2.612 0 00-1.013-.382.347.347 0 01-.294-.224 5.086 5.086 0 00-.916-1.378 2.635 2.635 0 00-1.2-.783" fill="#fff"/><path data-name="Контур 1274" d="M61.603 12.203c-.226.554-.455 1.068-.647 1.6a17.368 17.368 0 00-.866 3.737c-.058.451-.1.9-.15 1.356a.606.606 0 01-.074.232 14.376 14.376 0 00-1.631 4.346.35.35 0 01-.058.138 28.963 28.963 0 01.469-4.591c.419.07.61-.2.731-.506a8.6 8.6 0 00.4-1.247c.176-.782.31-1.573.46-2.36a1.072 1.072 0 000-.158h-.216a4.274 4.274 0 01-.494-.02.524.524 0 01-.493-.663 2.22 2.22 0 01.132-.5 7.48 7.48 0 01.508-1.022c-.053.2-.119.4-.156.6a3.041 3.041 0 00-.071.662.7.7 0 00.849.678l.417-2.1a1.827 1.827 0 00-.814-.129 3.519 3.519 0 00-3.083 2.116 3.472 3.472 0 00-.331 2c.008.074.016.148.021.222a.439.439 0 01-.009.076 3.657 3.657 0 00-1.935 1.827 1.32 1.32 0 00-.1.2.578.578 0 01-.52.407 2.762 2.762 0 00-1.2.571 8.92 8.92 0 00-1.945 2.038 12.822 12.822 0 00-2.084 4.386.312.312 0 01-.07.137c.019-.164.033-.328.058-.491s.053-.327.094-.487a11.245 11.245 0 013.157-5.467 4.818 4.818 0 011.017-.748 2.347 2.347 0 01.955-.324.238.238 0 00.227-.187 5.344 5.344 0 01.687-1.287 3.534 3.534 0 011.185-1.108.3.3 0 00.148-.288 4.656 4.656 0 011.18-2.781 3.8 3.8 0 012.214-1.323 2.53 2.53 0 011.837.327c.069.043.133.093.2.137" fill="#fff"/><path data-name="Контур 1275" d="M52.236 36.648a2.693 2.693 0 01-.46-.007.511.511 0 01-.241-.151 18.11 18.11 0 01-1.864-2.221 15.491 15.491 0 01-2.381-4.932 11.8 11.8 0 01-.417-2.815 9.713 9.713 0 01.681-3.882.5.5 0 01.134-.2c-.067.279-.141.557-.2.837a12.459 12.459 0 00.07 5.437 14.653 14.653 0 004.5 7.747c.052.047.1.1.181.188" fill="#fff"/><path data-name="Контур 1276" d="M16.536 36.636h-.343a14.633 14.633 0 00.054-2.516 12.881 12.881 0 00-.464-2.5 9.169 9.169 0 01.753 5.016" fill="#fff"/><g data-name="Сгруппировать 166"><g data-name="Сгруппировать 141" clip-path="url(#b)" transform="translate(9.96 4.743)"><path data-name="Контур 1277" d="M35.355 13.534A13.53 13.53 0 1121.825.004a13.53 13.53 0 0113.53 13.53" fill="#fff"/></g><g data-name="Сгруппировать 143" transform="translate(14.69 12.698)" clip-path="url(#c)"><path data-name="Прямоугольник 32" transform="translate(-.009)" fill="url(#d)" d="M0 0h39.081v17.754H0z"/></g><g data-name="Сгруппировать 145" transform="translate(9.96 5.941)" clip-path="url(#e)"><path data-name="Прямоугольник 33" fill="url(#f)" d="M0 0h39.157v17.723H0z"/></g><g data-name="Сгруппировать 147" transform="translate(20.954 10.068)" clip-path="url(#g)"><path data-name="Прямоугольник 34" transform="translate(-.021)" fill="url(#h)" d="M0 0h20.839v12.57H0z"/></g><g data-name="Сгруппировать 149" transform="translate(22.437 13.499)" clip-path="url(#i)"><path data-name="Прямоугольник 35" fill="url(#j)" d="M0 0h20.639v12.464H0z"/></g></g></g></svg>