<svg xmlns="http://www.w3.org/2000/svg" xmlns:xlink="http://www.w3.org/1999/xlink">

    <symbol id="vk" viewBox="0 0 22 13.066">
        <g id="Vk" transform="translate(-32.2 -61)">
            <path id="path4" d="M53.7,61.885c.153-.51,0-.885-.728-.885H50.561a1.039,1.039,0,0,0-1.047.681A20.133,20.133,0,0,1,46.556,66.6c-.561.561-.816.739-1.122.739-.153,0-.374-.178-.374-.688V61.885c0-.612-.178-.885-.688-.885H40.59a.58.58,0,0,0-.612.553c0,.58.867.714.956,2.346v3.544c0,.777-.14.918-.446.918-.816,0-2.8-3-3.978-6.426-.231-.666-.462-.936-1.077-.936H33.025c-.688,0-.825.324-.825.681,0,.638.816,3.8,3.8,7.981,1.989,2.856,4.791,4.4,7.341,4.4,1.53,0,1.719-.344,1.719-.936V70.971c0-.688.145-.825.629-.825.357,0,.969.178,2.4,1.555,1.632,1.632,1.9,2.364,2.819,2.364h2.407c.688,0,1.031-.344.833-1.022a10.333,10.333,0,0,0-2.03-2.82c-.561-.663-1.4-1.377-1.657-1.734-.357-.459-.255-.663,0-1.071C50.457,67.418,53.389,63.287,53.7,61.885Z" transform="translate(0 0)" fill="#fff" fill-rule="evenodd"/>
        </g>
    </symbol>

    <symbol id="ig" viewBox="0 0 22 22">
        <defs>
            <clipPath id="clip-path">
              <rect id="Прямоугольник_80" data-name="Прямоугольник 80" width="22" height="22" fill="#fff"/>
            </clipPath>
          </defs>
          <g id="Insta" transform="translate(0 0)">
            <g id="Сгруппировать_202" data-name="Сгруппировать 202" transform="translate(0 0)" clip-path="url(#clip-path)">
              <path id="Контур_1357" data-name="Контур 1357" d="M15.446,0H6.554A6.561,6.561,0,0,0,0,6.554v8.892A6.561,6.561,0,0,0,6.554,22h8.893A6.561,6.561,0,0,0,22,15.446V6.554A6.561,6.561,0,0,0,15.446,0m4.341,15.446a4.341,4.341,0,0,1-4.341,4.341H6.554a4.341,4.341,0,0,1-4.341-4.341V6.554A4.341,4.341,0,0,1,6.554,2.213h8.893a4.341,4.341,0,0,1,4.341,4.341Z" transform="translate(0 0)" fill="#fff"/>
              <path id="Контур_1358" data-name="Контур 1358" d="M16.358,10.667a5.69,5.69,0,1,0,5.69,5.691,5.7,5.7,0,0,0-5.69-5.691m0,9.167a3.477,3.477,0,1,1,3.476-3.476,3.477,3.477,0,0,1-3.476,3.476" transform="translate(-5.358 -5.357)" fill="#fff"/>
              <path id="Контур_1359" data-name="Контур 1359" d="M33.54,9.378a1.363,1.363,0,1,1-1.364-1.363A1.364,1.364,0,0,1,33.54,9.378" transform="translate(-15.475 -4.026)" fill="#fff"/>
            </g>
          </g>
    </symbol>
    
    <symbol id="yt" viewBox="0 0 22 15.616">
        <defs>
            <clipPath id="clip-path">
              <rect id="Прямоугольник_71" data-name="Прямоугольник 71" width="22" height="15.616" fill="#fff"/>
            </clipPath>
          </defs>
          <g id="Youtube" transform="translate(0 -0.01)">
            <g id="Сгруппировать_186" data-name="Сгруппировать 186" transform="translate(0 0.01)" clip-path="url(#clip-path)">
              <path id="Контур_1335" data-name="Контур 1335" d="M17.427,0H4.568A4.568,4.568,0,0,0,0,4.568V11a4.568,4.568,0,0,0,4.568,4.568H17.427A4.568,4.568,0,0,0,22,11V4.568A4.568,4.568,0,0,0,17.427,0M14.338,8.1,8.323,10.963a.241.241,0,0,1-.345-.218V4.829a.241.241,0,0,1,.35-.215l6.015,3.048a.242.242,0,0,1-.005.434" transform="translate(0 -0.006)" fill="#fff"/>
            </g>
          </g>
    </symbol>

    <symbol id="tiktok" viewBox="0 0 19.469 22">
        <g id="tiktok" transform="translate(-8010 -9076)">
            <path id="Объединение_4" data-name="Объединение 4" d="M521.964-170.011a6.656,6.656,0,0,1-1.905-4.671,6.658,6.658,0,0,0,1.905,4.672A6.675,6.675,0,0,1,519-175.562a6.682,6.682,0,0,1,6.685-6.681,6.653,6.653,0,0,1,.917.062v.818a6.827,6.827,0,0,1,1.058.061v3.7a3.087,3.087,0,0,0-.928-.143,3.057,3.057,0,0,0-3.058,3.056,3.048,3.048,0,0,0,.624,1.85,3.057,3.057,0,0,1-1.682-2.731,3.056,3.056,0,0,0,1.682,2.731,3.046,3.046,0,0,0,1.376.327,3.057,3.057,0,0,0,3.057-3.046V-190h3.639v.464c.013.139.031.277.055.415h0a5.06,5.06,0,0,0,2.309,3.415l0,0a5.052,5.052,0,0,0,2.675.763v.769a5.1,5.1,0,0,0,1.058.111v3.615a8.638,8.638,0,0,1-5.04-1.613v7.377A6.684,6.684,0,0,1,526.744-168,6.665,6.665,0,0,1,521.964-170.011Zm10.406-5.551a6.683,6.683,0,0,1-6.512,6.679,6.684,6.684,0,0,0,6.513-6.679v-7.377h0Zm-5.767-2.923h0a3.067,3.067,0,0,0-.869-.143A3.06,3.06,0,0,1,526.6-178.485Zm-.87-.143h0Zm11.678-5.544a5.049,5.049,0,0,1-.8-.241A5.025,5.025,0,0,0,537.411-184.172Zm-.8-.241-.04-.016Zm-.047-.019-.03-.012Zm-.048-.02-.021-.009Zm-.048-.02-.012-.005Zm-.048-.021h0Zm-4-4.628h1v.465a5.03,5.03,0,0,0,1.306,2.949A5.061,5.061,0,0,1,532.426-189.121Z" transform="translate(7491 9266)" fill="#fff"/>
        </g>
    </symbol>

    <symbol id="fb" viewBox="0 0 11.395 22">
          <defs>
                <clipPath id="clip-path">
                <rect id="Прямоугольник_72" data-name="Прямоугольник 72" width="11.395" height="22" fill="#fff"/>
                </clipPath>
            </defs>
            <g id="facebook" clip-path="url(#clip-path)">
                <path id="Контур_1336" data-name="Контур 1336" d="M10.794,12.011l.537-4.078H7.444V5.1A1.433,1.433,0,0,1,8.877,3.667h2.518V0H7.876A4.509,4.509,0,0,0,3.367,4.51V7.934H0v4.078H3.367V22H7.444V12.011Z" transform="translate(0 0)" fill="#fff"/>
            </g>
    </symbol>

    <symbol id="tg" viewBox="0 0 22 18.137">
        <defs>
            <clipPath id="clip-path">
            <rect id="Прямоугольник_79" data-name="Прямоугольник 79" width="22" height="18.137" fill="#fff"/>
            </clipPath>
        </defs>
        <g id="Telegram" transform="translate(0 0)">
            <g id="Сгруппировать_200" data-name="Сгруппировать 200" transform="translate(0 0)" clip-path="url(#clip-path)">
            <path id="Контур_1356" data-name="Контур 1356" d="M21.955.381a.465.465,0,0,0-.32-.349,1.631,1.631,0,0,0-.865.061S1.494,7.021.394,7.788c-.239.166-.319.262-.357.375-.189.546.406.787.406.787l4.97,1.617a.531.531,0,0,0,.252-.014c1.129-.713,11.37-7.181,11.962-7.4.09-.027.162,0,.143.068-.239.829-9.132,8.737-9.132,8.737a.339.339,0,0,0-.057.092h-.01l-.463,4.927s-.2,1.511,1.315,0c1.063-1.063,2.093-1.956,2.61-2.39,1.71,1.178,3.549,2.488,4.343,3.167a1.379,1.379,0,0,0,.956.383h.046c.753-.027.962-.855.962-.855S21.854,3.15,21.97,1.25c.012-.185.029-.3.029-.43a1.589,1.589,0,0,0-.043-.438" transform="translate(0 0.001)" fill="#fff"/>
            </g>
        </g>
    </symbol>

    <symbol id="wa" viewBox="0 0 21.976 22">
        <defs>
            <clipPath id="clip-path">
              <rect id="Прямоугольник_73" data-name="Прямоугольник 73" width="21.976" height="22" fill="#fff"/>
            </clipPath>
          </defs>
          <g id="Whatsaap" transform="translate(0 0)">
            <g id="Сгруппировать_190" data-name="Сгруппировать 190" transform="translate(0 0)" clip-path="url(#clip-path)">
              <path id="Контур_1337" data-name="Контур 1337" d="M0,22l1.539-5.467a10.971,10.971,0,1,1,4.1,4.015Zm5.925-3.448.336.2A9.11,9.11,0,1,0,3.328,15.89l.226.352-.886,3.148Z" transform="translate(0 0)" fill="#fff"/>
              <path id="Контур_1338" data-name="Контур 1338" d="M12.23,10.472l-.712-.039a.86.86,0,0,0-.612.209,3.242,3.242,0,0,0-1.067,1.635,4.957,4.957,0,0,0,1.149,3.884,11.556,11.556,0,0,0,6.228,4.527,3.037,3.037,0,0,0,2.57-.318,2.3,2.3,0,0,0,1-1.459l.113-.531a.368.368,0,0,0-.206-.413l-2.406-1.109a.368.368,0,0,0-.447.109L16.9,18.193a.271.271,0,0,1-.3.09,7.4,7.4,0,0,1-4-3.426.271.271,0,0,1,.035-.3l.9-1.044a.369.369,0,0,0,.06-.387L12.549,10.7a.369.369,0,0,0-.319-.224" transform="translate(-4.311 -4.605)" fill="#fff"/>
            </g>
          </g>
    </symbol>

    <symbol id="viber" viewBox="0 0 21.284 22">
          <defs>
            <clipPath id="clip-path">
            <rect id="Прямоугольник_74" data-name="Прямоугольник 74" width="21.284" height="22" fill="#fff"/>
            </clipPath>
        </defs>
        <g id="Viber" transform="translate(0 0)">
            <g id="Сгруппировать_192" data-name="Сгруппировать 192" transform="translate(0 0)" clip-path="url(#clip-path)">
            <path id="Контур_1339" data-name="Контур 1339" d="M20.808,5.289,20.8,5.264A7.337,7.337,0,0,0,15.848.5l-.024,0A27.524,27.524,0,0,0,5.46.492L5.436.5A7.343,7.343,0,0,0,.482,5.264l-.006.025a20.281,20.281,0,0,0,0,8.738l.006.026a7.4,7.4,0,0,0,4.681,4.7v2.317a.931.931,0,0,0,1.6.645l2.348-2.44c.509.028,1.019.044,1.528.044a27.632,27.632,0,0,0,5.182-.491l.024-.005A7.336,7.336,0,0,0,20.8,14.053l.007-.026a20.281,20.281,0,0,0,0-8.738M18.95,13.607a5.551,5.551,0,0,1-3.5,3.349,25.639,25.639,0,0,1-5.512.445.13.13,0,0,0-.1.04L8.13,19.2,6.306,21.071a.213.213,0,0,1-.367-.147V17.086a.133.133,0,0,0-.108-.13h0a5.551,5.551,0,0,1-3.5-3.349,18.4,18.4,0,0,1,0-7.9,5.551,5.551,0,0,1,3.5-3.349,25.633,25.633,0,0,1,9.623,0,5.548,5.548,0,0,1,3.5,3.349,18.386,18.386,0,0,1,0,7.9" transform="translate(0 0)" fill="#fff"/>
            <path id="Контур_1340" data-name="Контур 1340" d="M18.63,20.04c-.215-.065-.419-.109-.609-.188A13.834,13.834,0,0,1,12.8,16.366a13.543,13.543,0,0,1-2-3.054c-.256-.52-.472-1.061-.692-1.6a1.388,1.388,0,0,1,.407-1.365A3.2,3.2,0,0,1,11.6,9.541a.69.69,0,0,1,.863.2,11.108,11.108,0,0,1,1.334,1.868.889.889,0,0,1-.249,1.2c-.1.069-.193.149-.287.226a.957.957,0,0,0-.217.229.624.624,0,0,0-.042.55,4.972,4.972,0,0,0,2.794,3.093,1.421,1.421,0,0,0,.716.174c.437-.051.579-.531.886-.782a.834.834,0,0,1,1.005-.044c.323.2.636.424.947.646a10.8,10.8,0,0,1,.892.679.707.707,0,0,1,.212.875,2.959,2.959,0,0,1-1.272,1.4,3.068,3.068,0,0,1-.55.175c-.215-.065.187-.057,0,0" transform="translate(-4.95 -4.662)" fill="#fff"/>
            <path id="Контур_1341" data-name="Контур 1341" d="M20.529,8.276A5.232,5.232,0,0,1,25.674,12.6c.077.434.1.878.139,1.318a.309.309,0,0,1-.29.363c-.206,0-.3-.17-.313-.355-.027-.366-.045-.734-.1-1.1a4.6,4.6,0,0,0-3.706-3.847c-.287-.051-.582-.064-.872-.1-.184-.019-.425-.03-.466-.259a.314.314,0,0,1,.31-.354c.05,0,.1,0,.15,0,2.576.072-.05,0,0,0" transform="translate(-9.881 -4.075)" fill="#fff"/>
            <path id="Контур_1342" data-name="Контур 1342" d="M24.9,14.686a1.228,1.228,0,0,1-.025.179.293.293,0,0,1-.551.03.787.787,0,0,1-.031-.249,3.113,3.113,0,0,0-.394-1.565,2.912,2.912,0,0,0-1.222-1.146,3.514,3.514,0,0,0-.973-.3c-.147-.024-.3-.039-.443-.059A.281.281,0,0,1,21,11.262a.277.277,0,0,1,.309-.274,4.035,4.035,0,0,1,1.688.44,3.413,3.413,0,0,1,1.857,2.652c.008.054.021.108.025.162.01.134.016.268.026.445,0,.032-.01-.177,0,0" transform="translate(-10.341 -5.411)" fill="#fff"/>
            <path id="Контур_1343" data-name="Контур 1343" d="M23.68,15.993a.318.318,0,0,1-.353-.313,3.184,3.184,0,0,0-.06-.411,1.156,1.156,0,0,0-.427-.67,1.12,1.12,0,0,0-.348-.168c-.158-.046-.322-.033-.48-.072a.294.294,0,0,1-.239-.341.31.31,0,0,1,.327-.249,1.771,1.771,0,0,1,1.814,1.764.807.807,0,0,1,0,.25.256.256,0,0,1-.23.211c-.216,0,.1-.007,0,0" transform="translate(-10.72 -6.78)" fill="#fff"/>
            </g>
        </g>
    </symbol>

    <symbol id="plastilin" viewBox="0 0 93.859 20">
        <g id="white" transform="translate(0 0.001)">
          <g id="Сгруппировать_204" data-name="Сгруппировать 204" transform="translate(0 5.028)">
            <g id="Сгруппировать_203" data-name="Сгруппировать 203">
              <path id="SVGID_1_" d="M1.965,20.659c-.1-3.963,6.154-3.963,6.09-.032a2.854,2.854,0,0,1-3.029,2.964,2.853,2.853,0,0,1-3.061-2.932m-.483-3.577A4.847,4.847,0,0,0,0,20.626v8.99a.983.983,0,0,0,1.965,0V24.622c3.125,2.545,8.216.064,8.055-4A5.039,5.039,0,0,0,4.865,15.6a4.725,4.725,0,0,0-3.383,1.482" transform="translate(0.001 -15.6)" fill="var(--color-white)"/>
            </g>
          </g>
          <g id="Сгруппировать_206" data-name="Сгруппировать 206" transform="translate(11.47 0.034)">
            <g id="Сгруппировать_205" data-name="Сгруппировать 205">
              <path id="SVGID_3_" d="M35.6,1.067V14.084a1,1,0,0,0,1.708.709.947.947,0,0,0,.29-.709V1.067A.937.937,0,0,0,36.6.1a.956.956,0,0,0-1,.967" transform="translate(-35.598 -0.1)" fill="var(--color-white)"/>
            </g>
          </g>
          <g id="Сгруппировать_208" data-name="Сгруппировать 208" transform="translate(14.847 4.996)">
            <g id="Сгруппировать_207" data-name="Сгруппировать 207">
              <path id="SVGID_5_" d="M54.076,20.494a2.949,2.949,0,1,1-5.9,0,2.916,2.916,0,0,1,3-3.029,2.855,2.855,0,0,1,2.9,3.029M47.6,16.982C43.186,21.3,49.308,28.2,54.141,24.49a.983.983,0,0,0,1.965,0V20.559A4.955,4.955,0,0,0,51.015,15.5,4.6,4.6,0,0,0,47.6,16.982" transform="translate(-46.079 -15.5)" fill="var(--color-white)"/>
            </g>
          </g>
          <g id="Сгруппировать_210" data-name="Сгруппировать 210" transform="translate(26.099 4.996)">
            <g id="Сгруппировать_209" data-name="Сгруппировать 209">
              <path id="SVGID_7_" d="M81,18.5a2.819,2.819,0,0,0,2.932,3c2.255.322.226,3.383-1,1.45-1.482-2.223-2.964.58-.87,1.933,2.835,2.384,6.637-1.965,4-4.479-.741-.967-1.965-.612-2.835-1.192-1.16-1.128,1.063-2.545,1.643-1.192,1.8,2.739,3.512-2.288-.934-2.513h-.064A2.839,2.839,0,0,0,81,18.5" transform="translate(-81 -15.5)" fill="var(--color-white)"/>
            </g>
          </g>
          <g id="Сгруппировать_212" data-name="Сгруппировать 212" transform="translate(32.897 0)">
            <g id="Сгруппировать_211" data-name="Сгруппировать 211">
              <path id="SVGID_9_" d="M105.514,0c-1.708-.1-.741,4.092-.967,4.994H104.1c-.838-.032-2-.064-2,1-.032,1.063,1.16,1.031,2,1h.419v7.056a.983.983,0,1,0,1.965,0V6.956H107.9a.937.937,0,0,0,.967-1,.937.937,0,0,0-.967-1h-1.418c-.193-.838.741-4.962-.87-4.962h-.1" transform="translate(-102.098 0.005)" fill="var(--color-white)"/>
            </g>
          </g>
          <g id="Сгруппировать_214" data-name="Сгруппировать 214" transform="translate(40.722 1)">
            <g id="Сгруппировать_213" data-name="Сгруппировать 213">
              <path id="SVGID_11_" d="M126.42,8.062c.1.258-.29,8.957.29,8.764a.984.984,0,0,0,1.675-.709V8.062a.983.983,0,0,0-1.965,0M127.451,3.1a.937.937,0,0,0-.967,1,.937.937,0,0,0,.967,1,.921.921,0,0,0,.967-1,.976.976,0,0,0-.967-1h0" transform="translate(-126.382 -3.1)" fill="var(--color-white)"/>
            </g>
          </g>
          <g id="Сгруппировать_216" data-name="Сгруппировать 216" transform="translate(44.303 0.034)">
            <g id="Сгруппировать_215" data-name="Сгруппировать 215">
              <path id="SVGID_13_" d="M137.5,1.067V14.084a1,1,0,0,0,1.708.709.948.948,0,0,0,.29-.709V1.067a.937.937,0,0,0-1-.967.974.974,0,0,0-1,.967" transform="translate(-137.498 -0.1)" fill="var(--color-white)"/>
            </g>
          </g>
          <g id="Сгруппировать_218" data-name="Сгруппировать 218" transform="translate(47.848 1)">
            <g id="Сгруппировать_217" data-name="Сгруппировать 217">
              <path id="SVGID_15_" d="M148.5,8.062v8.055a1,1,0,0,0,1,1,.977.977,0,0,0,.967-1V8.062a.983.983,0,0,0-1.965,0m1-4.962a.937.937,0,0,0-.967,1,.937.937,0,0,0,.967,1,.921.921,0,0,0,.967-1,.937.937,0,0,0-.967-1h0" transform="translate(-148.5 -3.1)" fill="var(--color-white)"/>
            </g>
          </g>
          <g id="Сгруппировать_220" data-name="Сгруппировать 220" transform="translate(51.227 4.964)">
            <g id="Сгруппировать_219" data-name="Сгруппировать 219">
              <path id="SVGID_17_" d="M159.056,24.454a.983.983,0,0,0,1.965,0V20.426c-.1-3.963,6.154-3.931,6.09,0v4.028a.983.983,0,0,0,1.965,0c.226-3.931.193-8.893-5.026-9.054-5.188.161-5.22,5.091-4.994,9.054" transform="translate(-158.987 -15.4)" fill="var(--color-white)"/>
            </g>
          </g>
          <g id="Сгруппировать_221" data-name="Сгруппировать 221" transform="translate(10.73 16.756)">
            <path id="Контур_1360" data-name="Контур 1360" d="M36.393,55.293h-.354l-.612-2.062a2.614,2.614,0,0,1-.1-.354c-.032-.129-.064-.226-.064-.258a5.811,5.811,0,0,1-.161.612l-.612,2.062h-.354L33.3,52.2h.387l.483,1.9c.064.258.129.516.161.741a6.6,6.6,0,0,1,.161-.773L35.04,52.2h.419l.58,1.9a4.238,4.238,0,0,1,.161.741,4.475,4.475,0,0,1,.161-.741l.483-1.9h.387Z" transform="translate(-33.3 -52.136)" fill="var(--color-white)"/>
            <path id="Контур_1361" data-name="Контур 1361" d="M67.84,55.293H66.1V52.2h1.74v.322H66.487v1h1.289v.322H66.487v1.128H67.84Z" transform="translate(-55.532 -52.136)" fill="var(--color-white)"/>
            <path id="Контур_1362" data-name="Контур 1362" d="M92.8,52.2h.87a1.631,1.631,0,0,1,.9.193.651.651,0,0,1,.29.58.7.7,0,0,1-.161.451.676.676,0,0,1-.451.226v.032c.483.1.709.322.709.741a.768.768,0,0,1-.29.644,1.164,1.164,0,0,1-.773.226H92.8S92.8,52.2,92.8,52.2Zm.354,1.321h.58a.806.806,0,0,0,.548-.129.508.508,0,0,0,.161-.419.459.459,0,0,0-.193-.387,1.287,1.287,0,0,0-.58-.129h-.516Zm0,.322V55H93.8a.782.782,0,0,0,.58-.161.541.541,0,0,0,.193-.451.479.479,0,0,0-.193-.419.969.969,0,0,0-.58-.129Z" transform="translate(-73.629 -52.136)" fill="var(--color-white)"/>
            <path id="Контур_1363" data-name="Контур 1363" d="M144.733,54.42a.811.811,0,0,1-.29.644,1.2,1.2,0,0,1-.806.226,1.986,1.986,0,0,1-.838-.129v-.354a1.6,1.6,0,0,0,.419.129,2.128,2.128,0,0,0,.451.032.922.922,0,0,0,.548-.129.459.459,0,0,0,.193-.387.607.607,0,0,0-.064-.258.7.7,0,0,0-.226-.193,2.077,2.077,0,0,0-.451-.193,1.531,1.531,0,0,1-.612-.354.758.758,0,0,1-.193-.548.807.807,0,0,1,.258-.58,1.238,1.238,0,0,1,.709-.226,2.282,2.282,0,0,1,.838.161l-.1.322a2.2,2.2,0,0,0-.741-.161.63.63,0,0,0-.451.129.462.462,0,0,0-.161.354.607.607,0,0,0,.064.258.547.547,0,0,0,.193.193,1.724,1.724,0,0,0,.419.193,1.624,1.624,0,0,1,.677.387A.667.667,0,0,1,144.733,54.42Z" transform="translate(-107.518 -52.068)" fill="var(--color-white)"/>
            <path id="Контур_1364" data-name="Контур 1364" d="M170.021,55.293h-.354V52.522H168.7V52.2h2.32v.322h-.967l-.032,2.771Z" transform="translate(-125.073 -52.136)" fill="var(--color-white)"/>
            <path id="Контур_1365" data-name="Контур 1365" d="M198.752,52.132v2a1.048,1.048,0,0,1-.322.838,1.29,1.29,0,0,1-.87.29,1.182,1.182,0,0,1-.87-.29,1.151,1.151,0,0,1-.29-.838v-2h.354v2.03a.689.689,0,0,0,.226.58.872.872,0,0,0,.612.193.929.929,0,0,0,.612-.193.825.825,0,0,0,.226-.612V52.1h.322Z" transform="translate(-143.848 -52.068)" fill="var(--color-white)"/>
            <path id="Контур_1366" data-name="Контур 1366" d="M227.881,53.714a1.465,1.465,0,0,1-.419,1.16,1.725,1.725,0,0,1-1.192.419h-.87V52.2h.934a1.545,1.545,0,0,1,1.128.387A1.483,1.483,0,0,1,227.881,53.714Zm-.387.032a1.214,1.214,0,0,0-.29-.9,1.275,1.275,0,0,0-.9-.322h-.516V55h.451a1.3,1.3,0,0,0,.967-.322A1.409,1.409,0,0,0,227.494,53.747Z" transform="translate(-163.504 -52.136)" fill="var(--color-white)"/>
            <path id="Контур_1367" data-name="Контур 1367" d="M254.4,55.293V52.2h.354v3.093Z" transform="translate(-183.16 -52.136)" fill="var(--color-white)"/>
            <path id="Контур_1368" data-name="Контур 1368" d="M279.568,53.611a1.682,1.682,0,0,1-.387,1.16,1.314,1.314,0,0,1-1.031.419,1.339,1.339,0,0,1-1.063-.419,1.713,1.713,0,0,1-.387-1.192,1.576,1.576,0,0,1,.387-1.16A1.339,1.339,0,0,1,278.15,52a1.229,1.229,0,0,1,1.031.419A1.572,1.572,0,0,1,279.568,53.611Zm-2.449,0a1.644,1.644,0,0,0,.258.967.955.955,0,0,0,.773.322.876.876,0,0,0,.773-.322,1.644,1.644,0,0,0,.258-.967,1.47,1.47,0,0,0-.258-.934.966.966,0,0,0-.773-.322.876.876,0,0,0-.773.322A1.47,1.47,0,0,0,277.119,53.611Z" transform="translate(-198.274 -52)" fill="var(--color-white)"/>
          </g>
        </g>
        <g id="Слой_2" transform="translate(69.139)">
          <g id="Сгруппировать_222" data-name="Сгруппировать 222" transform="translate(0 0)">
            <path id="Контур_1369" data-name="Контур 1369" d="M224.606,24.507c.064,1.321-1.933,1.257-1.965,0-4.833,3.705-10.955-3.19-6.541-7.507,2.964-3.19,8.732-.838,8.506,3.577v3.931Zm-4.93-.967c3.9.129,3.834-6.122,0-6.058-3.931-.064-4.06,6.186,0,6.058" transform="translate(-214.579 -10.52)" fill="#e55030"/>
            <path id="Контур_1370" data-name="Контур 1370" d="M251.858,24.313a.983.983,0,0,1-1.965,0V20.285c-.644-2.771,4.994-7.121,6.025-4.028a1.026,1.026,0,0,1-1,1c-3.705-.1-3.029,4.64-3.061,7.056" transform="translate(-238.479 -10.294)" fill="#e55030"/>
            <path id="Контур_1371" data-name="Контур 1371" d="M276.1,4.988a.983.983,0,0,1,0,1.965h-1.418V14.01a1.025,1.025,0,0,1-1,1,1,1,0,0,1-.967-1V6.954c-.806,0-2.449.258-2.417-1-.032-1.224,1.643-.967,2.417-.967.226-.9-.741-5.091.967-4.994,1.708-.129.773,4.092,1,4.994Z" transform="translate(-252.345 0.009)" fill="#e55030"/>
          </g>
        </g>
    </symbol>

</svg>