<?xml version="1.0" encoding="UTF-8"?><!DOCTYPE svg PUBLIC "-//W3C//DTD SVG 1.1//EN" "http://www.w3.org/Graphics/SVG/1.1/DTD/svg11.dtd"><svg xmlns="http://www.w3.org/2000/svg" xmlns:xlink="http://www.w3.org/1999/xlink"><defs><clipPath><path d="M0 0h11.395v22H0z"/></clipPath><clipPath><path d="M0 0h22v22H0z"/></clipPath><clipPath><path d="M0 0h22v18.137H0z"/></clipPath><clipPath><path d="M0 0h21.284v22H0z"/></clipPath><clipPath><path d="M0 0h21.976v22H0z"/></clipPath><clipPath><path d="M0 0h22v15.616H0z"/></clipPath></defs><symbol id="fb" viewBox="0 0 11.395 22"><g clip-path="url(#a)"><path d="M10.794 12.011l.537-4.078H7.444V5.1a1.433 1.433 0 011.433-1.433h2.518V0H7.876a4.509 4.509 0 00-4.509 4.51v3.424H0v4.078h3.367V22h4.077v-9.989z"/></g></symbol><symbol id="inst" viewBox="0 0 22 22"><g clip-path="url(#a)"><path d="M15.446 0H6.554A6.561 6.561 0 000 6.554v8.892A6.561 6.561 0 006.554 22h8.893A6.561 6.561 0 0022 15.446V6.554A6.561 6.561 0 0015.446 0m4.341 15.446a4.341 4.341 0 01-4.341 4.341H6.554a4.341 4.341 0 01-4.341-4.341V6.554a4.341 4.341 0 014.341-4.341h8.893a4.341 4.341 0 014.341 4.341z"/><path d="M11 5.31a5.69 5.69 0 105.69 5.691A5.7 5.7 0 0011 5.31m0 9.167a3.477 3.477 0 113.476-3.476A3.477 3.477 0 0111 14.477"/><path d="M18.065 5.352a1.363 1.363 0 11-1.364-1.363 1.364 1.364 0 011.364 1.363"/></g></symbol><symbol id="logo-plastilin" viewBox="0 0 93.859 20"><g><path d="M1.966 10.088c-.1-3.963 6.154-3.963 6.09-.032a2.854 2.854 0 01-3.029 2.964 2.853 2.853 0 01-3.061-2.932m-.483-3.577a4.847 4.847 0 00-1.482 3.544v8.99a.983.983 0 001.965 0v-4.994c3.125 2.545 8.216.064 8.055-4a5.039 5.039 0 00-5.155-5.022 4.725 4.725 0 00-3.383 1.482"/></g><g><path d="M11.472 1.002v13.017a1 1 0 001.708.709.947.947 0 00.29-.709V1.002a.937.937 0 00-.998-.967.956.956 0 00-1 .967"/></g><g><path d="M22.844 9.991a2.95 2.95 0 11-5.9 0 2.916 2.916 0 013-3.029 2.855 2.855 0 012.9 3.029m-6.476-3.512c-4.414 4.318 1.708 11.218 6.541 7.508a.983.983 0 001.965 0v-3.931a4.955 4.955 0 00-5.091-5.059 4.6 4.6 0 00-3.415 1.482"/></g><g><path d="M26.099 7.997a2.819 2.819 0 002.932 3c2.255.322.226 3.383-1 1.45-1.482-2.223-2.964.58-.87 1.933 2.835 2.384 6.637-1.965 4-4.479-.741-.967-1.965-.612-2.835-1.192-1.16-1.128 1.063-2.545 1.643-1.192 1.8 2.739 3.512-2.288-.934-2.513h-.064a2.839 2.839 0 00-2.872 2.993"/></g><g><path d="M36.313.006c-1.708-.1-.741 4.092-.967 4.994h-.447c-.838-.032-2-.064-2 1-.032 1.063 1.16 1.031 2 1h.419v7.056a.983.983 0 101.965 0V6.962h1.416a.937.937 0 00.967-1 .937.937 0 00-.967-1h-1.418c-.193-.838.741-4.962-.87-4.962h-.1"/></g><g><path d="M40.76 5.963c.1.258-.29 8.957.29 8.764a.984.984 0 001.675-.709V5.963a.983.983 0 00-1.965 0m1.031-4.962a.937.937 0 00-.967 1 .937.937 0 00.967 1 .921.921 0 00.967-1 .976.976 0 00-.967-1"/></g><g><path d="M44.305 1.002v13.017a1 1 0 001.708.709.948.948 0 00.29-.709V1.002a.937.937 0 00-1-.967.974.974 0 00-1 .967"/></g><g><path d="M47.848 5.963v8.055a1 1 0 001 1 .977.977 0 00.967-1V5.963a.983.983 0 00-1.965 0m1-4.962a.937.937 0 00-.967 1 .937.937 0 00.967 1 .921.921 0 00.967-1 .937.937 0 00-.967-1"/></g><g><path d="M51.296 14.019a.983.983 0 001.965 0V9.991c-.1-3.963 6.154-3.931 6.09 0v4.028a.983.983 0 001.965 0c.226-3.931.193-8.893-5.026-9.054-5.188.161-5.22 5.091-4.994 9.054"/></g><g><path d="M13.823 19.914h-.354l-.612-2.062a2.614 2.614 0 01-.1-.354c-.032-.129-.064-.226-.064-.258a5.811 5.811 0 01-.161.612l-.612 2.062h-.354l-.836-3.093h.387l.483 1.9c.064.258.129.516.161.741a6.6 6.6 0 01.161-.773l.548-1.868h.419l.58 1.9a4.238 4.238 0 01.161.741 4.475 4.475 0 01.161-.741l.483-1.9h.387z"/><path d="M23.038 19.914h-1.74v-3.093h1.74v.322h-1.353v1h1.289v.322h-1.289v1.128h1.353z"/><path d="M29.901 16.821h.87a1.631 1.631 0 01.9.193.651.651 0 01.29.58.7.7 0 01-.161.451.676.676 0 01-.451.226v.032c.483.1.709.322.709.741a.768.768 0 01-.29.644 1.164 1.164 0 01-.773.226h-1.094v-3.093zm.354 1.321h.58a.806.806 0 00.548-.129.508.508 0 00.161-.419.459.459 0 00-.193-.387 1.287 1.287 0 00-.58-.129h-.516zm0 .322v1.157h.646a.782.782 0 00.58-.161.541.541 0 00.193-.451.479.479 0 00-.193-.419.969.969 0 00-.58-.129z"/><path d="M47.945 19.109a.811.811 0 01-.29.644 1.2 1.2 0 01-.806.226 1.986 1.986 0 01-.838-.129v-.354a1.6 1.6 0 00.419.129 2.128 2.128 0 00.451.032.922.922 0 00.548-.129.459.459 0 00.193-.387.607.607 0 00-.064-.258.7.7 0 00-.226-.193 2.077 2.077 0 00-.451-.193 1.531 1.531 0 01-.612-.354.758.758 0 01-.193-.548.807.807 0 01.258-.58 1.238 1.238 0 01.709-.226 2.282 2.282 0 01.838.161l-.1.322a2.2 2.2 0 00-.741-.161.63.63 0 00-.451.129.462.462 0 00-.161.354.607.607 0 00.064.258.547.547 0 00.193.193 1.724 1.724 0 00.419.193 1.624 1.624 0 01.677.387.667.667 0 01.164.484z"/><path d="M55.678 19.914h-.354v-2.771h-.967v-.322h2.32v.322h-.967l-.032 2.771z"/><path d="M65.634 16.821v2a1.048 1.048 0 01-.322.838 1.29 1.29 0 01-.87.29 1.182 1.182 0 01-.87-.29 1.151 1.151 0 01-.29-.838v-2h.354v2.03a.689.689 0 00.226.58.872.872 0 00.612.193.929.929 0 00.612-.193.825.825 0 00.226-.612v-2.03h.322z"/><path d="M75.107 18.335a1.465 1.465 0 01-.419 1.16 1.725 1.725 0 01-1.192.419h-.87v-3.093h.934a1.545 1.545 0 011.128.387 1.483 1.483 0 01.419 1.127zm-.387.032a1.214 1.214 0 00-.29-.9 1.275 1.275 0 00-.9-.322h-.516v2.476h.451a1.3 1.3 0 00.967-.322 1.409 1.409 0 00.288-.931z"/><path d="M81.97 19.914v-3.093h.354v3.093z"/><path d="M92.024 18.368a1.682 1.682 0 01-.387 1.16 1.314 1.314 0 01-1.031.419 1.339 1.339 0 01-1.063-.419 1.713 1.713 0 01-.387-1.192 1.576 1.576 0 01.387-1.16 1.339 1.339 0 011.063-.419 1.229 1.229 0 011.031.419 1.572 1.572 0 01.387 1.192zm-2.449 0a1.644 1.644 0 00.258.967.955.955 0 00.773.322.876.876 0 00.773-.322 1.644 1.644 0 00.258-.967 1.47 1.47 0 00-.258-.934.966.966 0 00-.773-.322.876.876 0 00-.773.322 1.47 1.47 0 00-.258.934z"/></g><g><g><path d="M79.166 13.987c.064 1.321-1.933 1.257-1.965 0-4.833 3.705-10.955-3.19-6.541-7.507 2.964-3.19 8.732-.838 8.506 3.577v3.931zm-4.93-.967c3.9.129 3.834-6.122 0-6.058-3.931-.064-4.06 6.186 0 6.058"/><path d="M82.518 14.019a.983.983 0 01-1.965 0V9.991c-.644-2.771 4.994-7.121 6.025-4.028a1.026 1.026 0 01-1 1c-3.705-.1-3.029 4.64-3.061 7.056"/><path d="M92.894 4.997a.983.983 0 010 1.965h-1.418v7.057a1.025 1.025 0 01-1 1 1 1 0 01-.967-1V6.963c-.806 0-2.449.258-2.417-1-.032-1.224 1.643-.967 2.417-.967.226-.9-.741-5.091.967-4.994 1.708-.129.773 4.092 1 4.994z"/></g></g></symbol><symbol id="telgr" viewBox="0 0 22 18.137"><g clip-path="url(#a)"><path d="M21.955.382a.465.465 0 00-.32-.349 1.631 1.631 0 00-.865.061S1.494 7.022.394 7.789c-.239.166-.319.262-.357.375-.189.546.406.787.406.787l4.97 1.617a.531.531 0 00.252-.014c1.129-.713 11.37-7.181 11.962-7.4.09-.027.162 0 .143.068-.239.829-9.132 8.737-9.132 8.737a.339.339 0 00-.057.092h-.01l-.463 4.927s-.2 1.511 1.315 0a42.543 42.543 0 012.61-2.39c1.71 1.178 3.549 2.488 4.343 3.167a1.379 1.379 0 00.956.383h.046c.753-.027.962-.855.962-.855s3.514-14.132 3.63-16.032c.012-.185.029-.3.029-.43a1.589 1.589 0 00-.043-.438"/></g></symbol><symbol id="tiktok" viewBox="0 0 19.469 22"><path d="M2.964 19.989a6.656 6.656 0 01-1.905-4.671 6.658 6.658 0 001.905 4.672A6.675 6.675 0 010 14.438a6.682 6.682 0 016.685-6.681 6.653 6.653 0 01.917.062v.818a6.827 6.827 0 011.058.061v3.7a3.087 3.087 0 00-.928-.143 3.057 3.057 0 00-3.058 3.056 3.048 3.048 0 00.624 1.85 3.057 3.057 0 01-1.682-2.731 3.056 3.056 0 001.682 2.731 3.046 3.046 0 001.376.327 3.057 3.057 0 003.057-3.046V0h3.639v.464c.013.139.031.277.055.415a5.06 5.06 0 002.309 3.415 5.052 5.052 0 002.675.763v.769a5.1 5.1 0 001.058.111v3.615a8.638 8.638 0 01-5.04-1.613v7.377A6.684 6.684 0 017.744 22a6.665 6.665 0 01-4.78-2.011zm10.406-5.551a6.683 6.683 0 01-6.512 6.679 6.684 6.684 0 006.513-6.679V7.061zm-5.767-2.923a3.067 3.067 0 00-.869-.143 3.06 3.06 0 01.866.143zm-.87-.143zm11.678-5.544a5.049 5.049 0 01-.8-.241 5.025 5.025 0 00.8.241zm-.8-.241l-.04-.016zm-.047-.019l-.03-.012zm-.048-.02l-.021-.009zm-.048-.02l-.012-.005zm-.048-.021zm-4-4.628h1v.465a5.03 5.03 0 001.306 2.949 5.061 5.061 0 01-2.3-3.414z"/></symbol><symbol id="viber" viewBox="0 0 21.284 22"><g clip-path="url(#a)"><path d="M20.808 5.289l-.008-.025A7.337 7.337 0 0015.848.5h-.024A27.524 27.524 0 005.46.492L5.436.5A7.343 7.343 0 00.482 5.264l-.006.025a20.281 20.281 0 000 8.738l.006.026a7.4 7.4 0 004.681 4.7v2.317a.931.931 0 001.6.645l2.348-2.44c.509.028 1.019.044 1.528.044a27.632 27.632 0 005.182-.491l.024-.005a7.336 7.336 0 004.955-4.77l.007-.026a20.281 20.281 0 000-8.738m-1.857 8.318a5.551 5.551 0 01-3.5 3.349 25.639 25.639 0 01-5.512.445.13.13 0 00-.1.04L8.13 19.2l-1.824 1.871a.213.213 0 01-.367-.147v-3.838a.133.133 0 00-.108-.13 5.551 5.551 0 01-3.5-3.349 18.4 18.4 0 010-7.9 5.551 5.551 0 013.5-3.349 25.633 25.633 0 019.623 0 5.548 5.548 0 013.5 3.349 18.386 18.386 0 010 7.9"/><path d="M13.68 15.378c-.215-.065-.419-.109-.609-.188a13.834 13.834 0 01-5.221-3.486 13.543 13.543 0 01-2-3.054c-.256-.52-.472-1.061-.692-1.6a1.388 1.388 0 01.407-1.365 3.2 3.2 0 011.085-.806.69.69 0 01.863.2 11.108 11.108 0 011.334 1.868.889.889 0 01-.249 1.2c-.1.069-.193.149-.287.226a.957.957 0 00-.217.229.624.624 0 00-.042.55 4.972 4.972 0 002.794 3.093 1.421 1.421 0 00.716.174c.437-.051.579-.531.886-.782a.834.834 0 011.005-.044c.323.2.636.424.947.646a10.8 10.8 0 01.892.679.707.707 0 01.212.875 2.959 2.959 0 01-1.272 1.4 3.068 3.068 0 01-.55.175c-.215-.065.187-.057 0 0"/><path d="M10.648 4.201a5.232 5.232 0 015.145 4.324c.077.434.1.878.139 1.318a.309.309 0 01-.29.363c-.206 0-.3-.17-.313-.355-.027-.366-.045-.734-.1-1.1a4.6 4.6 0 00-3.706-3.847c-.287-.051-.582-.064-.872-.1-.184-.019-.425-.03-.466-.259a.314.314 0 01.31-.354h.15c2.576.072-.05 0 0 0"/><path d="M14.559 9.275a1.228 1.228 0 01-.025.179.293.293 0 01-.551.03.787.787 0 01-.031-.249 3.113 3.113 0 00-.394-1.565 2.912 2.912 0 00-1.222-1.146 3.514 3.514 0 00-.973-.3c-.147-.024-.3-.039-.443-.059a.281.281 0 01-.261-.314.277.277 0 01.309-.274 4.035 4.035 0 011.688.44 3.413 3.413 0 011.857 2.652c.008.054.021.108.025.162.01.134.016.268.026.445 0 .032-.01-.177 0 0"/><path d="M12.96 9.213a.318.318 0 01-.353-.313 3.184 3.184 0 00-.06-.411 1.156 1.156 0 00-.427-.67 1.12 1.12 0 00-.348-.168c-.158-.046-.322-.033-.48-.072a.294.294 0 01-.239-.341.31.31 0 01.327-.249 1.771 1.771 0 011.814 1.764.807.807 0 010 .25.256.256 0 01-.23.211c-.216 0 .1-.007 0 0"/></g></symbol><symbol id="vk" viewBox="0 0 22 13.066"><path fill-rule="evenodd" d="M21.5.885c.153-.51 0-.885-.728-.885h-2.411a1.039 1.039 0 00-1.047.681A20.133 20.133 0 0114.356 5.6c-.561.561-.816.739-1.122.739-.153 0-.374-.178-.374-.688V.885c0-.612-.178-.885-.688-.885H8.39a.58.58 0 00-.612.553c0 .58.867.714.956 2.346v3.544c0 .777-.14.918-.446.918-.816 0-2.8-3-3.978-6.426-.231-.666-.462-.936-1.077-.936H.825C.137-.001 0 .323 0 .68c0 .638.816 3.8 3.8 7.981 1.989 2.856 4.791 4.4 7.341 4.4 1.53 0 1.719-.344 1.719-.936V9.971c0-.688.145-.825.629-.825.357 0 .969.178 2.4 1.555 1.632 1.632 1.9 2.364 2.819 2.364h2.407c.688 0 1.031-.344.833-1.022a10.333 10.333 0 00-2.03-2.82c-.561-.663-1.4-1.377-1.657-1.734-.357-.459-.255-.663 0-1.071-.004 0 2.928-4.131 3.239-5.533z"/></symbol><symbol id="wa" viewBox="0 0 21.976 22"><g clip-path="url(#a)"><path d="M0 22l1.539-5.467a10.971 10.971 0 114.1 4.015zm5.925-3.448l.336.2a9.11 9.11 0 10-2.933-2.862l.226.352-.886 3.148z"/><path d="M7.919 5.867l-.712-.039a.86.86 0 00-.612.209 3.242 3.242 0 00-1.067 1.635 4.957 4.957 0 001.149 3.884 11.556 11.556 0 006.228 4.527 3.037 3.037 0 002.57-.318 2.3 2.3 0 001-1.459l.113-.531a.368.368 0 00-.206-.413l-2.406-1.109a.368.368 0 00-.447.109l-.94 1.226a.271.271 0 01-.3.09 7.4 7.4 0 01-4-3.426.271.271 0 01.035-.3l.9-1.044a.369.369 0 00.06-.387L8.238 6.095a.369.369 0 00-.319-.224"/></g></symbol><symbol id="yt" viewBox="0 0 22 15.616"><g clip-path="url(#a)"><path d="M17.427-.006H4.568A4.568 4.568 0 000 4.562v6.432a4.568 4.568 0 004.568 4.568h12.859A4.568 4.568 0 0022 10.994V4.562a4.568 4.568 0 00-4.573-4.568m-3.089 8.1l-6.015 2.863a.241.241 0 01-.345-.218V4.823a.241.241 0 01.35-.215l6.015 3.048a.242.242 0 01-.005.434"/></g></symbol></svg>