<svg xmlns="http://www.w3.org/2000/svg" width="22" height="22"><defs><clipPath id="a"><path data-name="Прямоугольник 80" fill="#fff" d="M0 0h22v22H0z"/></clipPath></defs><g data-name="Сгруппировать 202" clip-path="url(#a)" fill="#fff"><path data-name="Контур 1357" d="M15.446 0H6.554A6.561 6.561 0 000 6.554v8.892A6.561 6.561 0 006.554 22h8.893A6.561 6.561 0 0022 15.446V6.554A6.561 6.561 0 0015.446 0m4.341 15.446a4.341 4.341 0 01-4.341 4.341H6.554a4.341 4.341 0 01-4.341-4.341V6.554a4.341 4.341 0 014.341-4.341h8.893a4.341 4.341 0 014.341 4.341z"/><path data-name="Контур 1358" d="M11 5.31a5.69 5.69 0 105.69 5.691A5.7 5.7 0 0011 5.31m0 9.167a3.477 3.477 0 113.476-3.476A3.477 3.477 0 0111 14.477"/><path data-name="Контур 1359" d="M18.065 5.352a1.363 1.363 0 11-1.364-1.363 1.364 1.364 0 011.364 1.363"/></g></svg>