<svg xmlns="http://www.w3.org/2000/svg" width="22" height="18.137"><defs><clipPath id="a"><path data-name="Прямоугольник 79" fill="#fff" d="M0 0h22v18.137H0z"/></clipPath></defs><g data-name="Сгруппировать 200" clip-path="url(#a)"><path data-name="Контур 1356" d="M21.955.382a.465.465 0 00-.32-.349 1.631 1.631 0 00-.865.061S1.494 7.022.394 7.789c-.239.166-.319.262-.357.375-.189.546.406.787.406.787l4.97 1.617a.531.531 0 00.252-.014c1.129-.713 11.37-7.181 11.962-7.4.09-.027.162 0 .143.068-.239.829-9.132 8.737-9.132 8.737a.339.339 0 00-.057.092h-.01l-.463 4.927s-.2 1.511 1.315 0a42.543 42.543 0 012.61-2.39c1.71 1.178 3.549 2.488 4.343 3.167a1.379 1.379 0 00.956.383h.046c.753-.027.962-.855.962-.855s3.514-14.132 3.63-16.032c.012-.185.029-.3.029-.43a1.589 1.589 0 00-.043-.438" fill="#fff"/></g></svg>