<svg xmlns="http://www.w3.org/2000/svg" width="19.469" height="22"><path data-name="Объединение 4" d="M2.964 19.989a6.656 6.656 0 01-1.905-4.671 6.658 6.658 0 001.905 4.672A6.675 6.675 0 010 14.438a6.682 6.682 0 016.685-6.681 6.653 6.653 0 01.917.062v.818a6.827 6.827 0 011.058.061v3.7a3.087 3.087 0 00-.928-.143 3.057 3.057 0 00-3.058 3.056 3.048 3.048 0 00.624 1.85 3.057 3.057 0 01-1.682-2.731 3.056 3.056 0 001.682 2.731 3.046 3.046 0 001.376.327 3.057 3.057 0 003.057-3.046V0h3.639v.464c.013.139.031.277.055.415a5.06 5.06 0 002.309 3.415 5.052 5.052 0 002.675.763v.769a5.1 5.1 0 001.058.111v3.615a8.638 8.638 0 01-5.04-1.613v7.377A6.684 6.684 0 017.744 22a6.665 6.665 0 01-4.78-2.011zm10.406-5.551a6.683 6.683 0 01-6.512 6.679 6.684 6.684 0 006.513-6.679V7.061zm-5.767-2.923a3.067 3.067 0 00-.869-.143 3.06 3.06 0 01.866.143zm-.87-.143zm11.678-5.544a5.049 5.049 0 01-.8-.241 5.025 5.025 0 00.8.241zm-.8-.241l-.04-.016zm-.047-.019l-.03-.012zm-.048-.02l-.021-.009zm-.048-.02l-.012-.005zm-.048-.021zm-4-4.628h1v.465a5.03 5.03 0 001.306 2.949 5.061 5.061 0 01-2.3-3.414z" fill="#fff"/></svg>