<svg xmlns="http://www.w3.org/2000/svg" width="21.284" height="22"><defs><clipPath id="a"><path data-name="Прямоугольник 74" fill="#fff" d="M0 0h21.284v22H0z"/></clipPath></defs><g data-name="Сгруппировать 192" clip-path="url(#a)" fill="#fff"><path data-name="Контур 1339" d="M20.808 5.289l-.008-.025A7.337 7.337 0 0015.848.5h-.024A27.524 27.524 0 005.46.492L5.436.5A7.343 7.343 0 00.482 5.264l-.006.025a20.281 20.281 0 000 8.738l.006.026a7.4 7.4 0 004.681 4.7v2.317a.931.931 0 001.6.645l2.348-2.44c.509.028 1.019.044 1.528.044a27.632 27.632 0 005.182-.491l.024-.005a7.336 7.336 0 004.955-4.77l.007-.026a20.281 20.281 0 000-8.738m-1.857 8.318a5.551 5.551 0 01-3.5 3.349 25.639 25.639 0 01-5.512.445.13.13 0 00-.1.04L8.13 19.2l-1.824 1.871a.213.213 0 01-.367-.147v-3.838a.133.133 0 00-.108-.13 5.551 5.551 0 01-3.5-3.349 18.4 18.4 0 010-7.9 5.551 5.551 0 013.5-3.349 25.633 25.633 0 019.623 0 5.548 5.548 0 013.5 3.349 18.386 18.386 0 010 7.9"/><path data-name="Контур 1340" d="M13.68 15.378c-.215-.065-.419-.109-.609-.188a13.834 13.834 0 01-5.221-3.486 13.543 13.543 0 01-2-3.054c-.256-.52-.472-1.061-.692-1.6a1.388 1.388 0 01.407-1.365 3.2 3.2 0 011.085-.806.69.69 0 01.863.2 11.108 11.108 0 011.334 1.868.889.889 0 01-.249 1.2c-.1.069-.193.149-.287.226a.957.957 0 00-.217.229.624.624 0 00-.042.55 4.972 4.972 0 002.794 3.093 1.421 1.421 0 00.716.174c.437-.051.579-.531.886-.782a.834.834 0 011.005-.044c.323.2.636.424.947.646a10.8 10.8 0 01.892.679.707.707 0 01.212.875 2.959 2.959 0 01-1.272 1.4 3.068 3.068 0 01-.55.175c-.215-.065.187-.057 0 0"/><path data-name="Контур 1341" d="M10.648 4.201a5.232 5.232 0 015.145 4.324c.077.434.1.878.139 1.318a.309.309 0 01-.29.363c-.206 0-.3-.17-.313-.355-.027-.366-.045-.734-.1-1.1a4.6 4.6 0 00-3.706-3.847c-.287-.051-.582-.064-.872-.1-.184-.019-.425-.03-.466-.259a.314.314 0 01.31-.354h.15c2.576.072-.05 0 0 0"/><path data-name="Контур 1342" d="M14.559 9.275a1.228 1.228 0 01-.025.179.293.293 0 01-.551.03.787.787 0 01-.031-.249 3.113 3.113 0 00-.394-1.565 2.912 2.912 0 00-1.222-1.146 3.514 3.514 0 00-.973-.3c-.147-.024-.3-.039-.443-.059a.281.281 0 01-.261-.314.277.277 0 01.309-.274 4.035 4.035 0 011.688.44 3.413 3.413 0 011.857 2.652c.008.054.021.108.025.162.01.134.016.268.026.445 0 .032-.01-.177 0 0"/><path data-name="Контур 1343" d="M12.96 9.213a.318.318 0 01-.353-.313 3.184 3.184 0 00-.06-.411 1.156 1.156 0 00-.427-.67 1.12 1.12 0 00-.348-.168c-.158-.046-.322-.033-.48-.072a.294.294 0 01-.239-.341.31.31 0 01.327-.249 1.771 1.771 0 011.814 1.764.807.807 0 010 .25.256.256 0 01-.23.211c-.216 0 .1-.007 0 0"/></g></svg>