<svg xmlns="http://www.w3.org/2000/svg" width="21.976" height="22"><defs><clipPath id="a"><path data-name="Прямоугольник 73" fill="#fff" d="M0 0h21.976v22H0z"/></clipPath></defs><g data-name="Сгруппировать 190" clip-path="url(#a)" fill="#fff"><path data-name="Контур 1337" d="M0 22l1.539-5.467a10.971 10.971 0 114.1 4.015zm5.925-3.448l.336.2a9.11 9.11 0 10-2.933-2.862l.226.352-.886 3.148z"/><path data-name="Контур 1338" d="M7.919 5.867l-.712-.039a.86.86 0 00-.612.209 3.242 3.242 0 00-1.067 1.635 4.957 4.957 0 001.149 3.884 11.556 11.556 0 006.228 4.527 3.037 3.037 0 002.57-.318 2.3 2.3 0 001-1.459l.113-.531a.368.368 0 00-.206-.413l-2.406-1.109a.368.368 0 00-.447.109l-.94 1.226a.271.271 0 01-.3.09 7.4 7.4 0 01-4-3.426.271.271 0 01.035-.3l.9-1.044a.369.369 0 00.06-.387L8.238 6.095a.369.369 0 00-.319-.224"/></g></svg>