<svg xmlns="http://www.w3.org/2000/svg" xmlns:xlink="http://www.w3.org/1999/xlink" width="22" height="18.137" viewBox="0 0 22 18.137">
  <defs>
    <clipPath id="clip-path">
      <rect id="Прямоугольник_79" data-name="Прямоугольник 79" width="22" height="18.137" fill="#fff"/>
    </clipPath>
  </defs>
  <g id="Telegram" transform="translate(0 0)">
    <g id="Сгруппировать_200" data-name="Сгруппировать 200" transform="translate(0 0)" clip-path="url(#clip-path)">
      <path id="Контур_1356" data-name="Контур 1356" d="M21.955.381a.465.465,0,0,0-.32-.349,1.631,1.631,0,0,0-.865.061S1.494,7.021.394,7.788c-.239.166-.319.262-.357.375-.189.546.406.787.406.787l4.97,1.617a.531.531,0,0,0,.252-.014c1.129-.713,11.37-7.181,11.962-7.4.09-.027.162,0,.143.068-.239.829-9.132,8.737-9.132,8.737a.339.339,0,0,0-.057.092h-.01l-.463,4.927s-.2,1.511,1.315,0c1.063-1.063,2.093-1.956,2.61-2.39,1.71,1.178,3.549,2.488,4.343,3.167a1.379,1.379,0,0,0,.956.383h.046c.753-.027.962-.855.962-.855S21.854,3.15,21.97,1.25c.012-.185.029-.3.029-.43a1.589,1.589,0,0,0-.043-.438" transform="translate(0 0.001)" fill="#fff"/>
    </g>
  </g>
</svg>
