<svg xmlns="http://www.w3.org/2000/svg" width="22" height="13.066" viewBox="0 0 22 13.066">
  <g id="Vk" transform="translate(-32.2 -61)">
    <path id="path4" d="M53.7,61.885c.153-.51,0-.885-.728-.885H50.561a1.039,1.039,0,0,0-1.047.681A20.133,20.133,0,0,1,46.556,66.6c-.561.561-.816.739-1.122.739-.153,0-.374-.178-.374-.688V61.885c0-.612-.178-.885-.688-.885H40.59a.58.58,0,0,0-.612.553c0,.58.867.714.956,2.346v3.544c0,.777-.14.918-.446.918-.816,0-2.8-3-3.978-6.426-.231-.666-.462-.936-1.077-.936H33.025c-.688,0-.825.324-.825.681,0,.638.816,3.8,3.8,7.981,1.989,2.856,4.791,4.4,7.341,4.4,1.53,0,1.719-.344,1.719-.936V70.971c0-.688.145-.825.629-.825.357,0,.969.178,2.4,1.555,1.632,1.632,1.9,2.364,2.819,2.364h2.407c.688,0,1.031-.344.833-1.022a10.333,10.333,0,0,0-2.03-2.82c-.561-.663-1.4-1.377-1.657-1.734-.357-.459-.255-.663,0-1.071C50.457,67.418,53.389,63.287,53.7,61.885Z" transform="translate(0 0)" fill="#fff" fill-rule="evenodd"/>
  </g>
</svg>
