<svg xmlns="http://www.w3.org/2000/svg" xmlns:xlink="http://www.w3.org/1999/xlink" width="21.976" height="22" viewBox="0 0 21.976 22">
  <defs>
    <clipPath id="clip-path">
      <rect id="Прямоугольник_73" data-name="Прямоугольник 73" width="21.976" height="22" fill="#fff"/>
    </clipPath>
  </defs>
  <g id="Whatsaap" transform="translate(0 0)">
    <g id="Сгруппировать_190" data-name="Сгруппировать 190" transform="translate(0 0)" clip-path="url(#clip-path)">
      <path id="Контур_1337" data-name="Контур 1337" d="M0,22l1.539-5.467a10.971,10.971,0,1,1,4.1,4.015Zm5.925-3.448.336.2A9.11,9.11,0,1,0,3.328,15.89l.226.352-.886,3.148Z" transform="translate(0 0)" fill="#fff"/>
      <path id="Контур_1338" data-name="Контур 1338" d="M12.23,10.472l-.712-.039a.86.86,0,0,0-.612.209,3.242,3.242,0,0,0-1.067,1.635,4.957,4.957,0,0,0,1.149,3.884,11.556,11.556,0,0,0,6.228,4.527,3.037,3.037,0,0,0,2.57-.318,2.3,2.3,0,0,0,1-1.459l.113-.531a.368.368,0,0,0-.206-.413l-2.406-1.109a.368.368,0,0,0-.447.109L16.9,18.193a.271.271,0,0,1-.3.09,7.4,7.4,0,0,1-4-3.426.271.271,0,0,1,.035-.3l.9-1.044a.369.369,0,0,0,.06-.387L12.549,10.7a.369.369,0,0,0-.319-.224" transform="translate(-4.311 -4.605)" fill="#fff"/>
    </g>
  </g>
</svg>
