<svg xmlns="http://www.w3.org/2000/svg" xmlns:xlink="http://www.w3.org/1999/xlink" width="22" height="22" viewBox="0 0 22 22">
  <defs>
    <clipPath id="clip-path">
      <rect id="Прямоугольник_80" data-name="Прямоугольник 80" width="22" height="22" fill="#fff"/>
    </clipPath>
  </defs>
  <g id="Insta" transform="translate(0 0)">
    <g id="Сгруппировать_202" data-name="Сгруппировать 202" transform="translate(0 0)" clip-path="url(#clip-path)">
      <path id="Контур_1357" data-name="Контур 1357" d="M15.446,0H6.554A6.561,6.561,0,0,0,0,6.554v8.892A6.561,6.561,0,0,0,6.554,22h8.893A6.561,6.561,0,0,0,22,15.446V6.554A6.561,6.561,0,0,0,15.446,0m4.341,15.446a4.341,4.341,0,0,1-4.341,4.341H6.554a4.341,4.341,0,0,1-4.341-4.341V6.554A4.341,4.341,0,0,1,6.554,2.213h8.893a4.341,4.341,0,0,1,4.341,4.341Z" transform="translate(0 0)" fill="#fff"/>
      <path id="Контур_1358" data-name="Контур 1358" d="M16.358,10.667a5.69,5.69,0,1,0,5.69,5.691,5.7,5.7,0,0,0-5.69-5.691m0,9.167a3.477,3.477,0,1,1,3.476-3.476,3.477,3.477,0,0,1-3.476,3.476" transform="translate(-5.358 -5.357)" fill="#fff"/>
      <path id="Контур_1359" data-name="Контур 1359" d="M33.54,9.378a1.363,1.363,0,1,1-1.364-1.363A1.364,1.364,0,0,1,33.54,9.378" transform="translate(-15.475 -4.026)" fill="#fff"/>
    </g>
  </g>
</svg>
