<svg id="Лого_Пластилин_Белый_5_" data-name="Лого Пластилин Белый (5)" xmlns="http://www.w3.org/2000/svg" width="93.859" height="20" viewBox="0 0 93.859 20">
  <g id="Слой_1" transform="translate(0 0.001)">
    <g id="Сгруппировать_204" data-name="Сгруппировать 204" transform="translate(0 5.028)">
      <g id="Сгруппировать_203" data-name="Сгруппировать 203">
        <path id="SVGID_1_" d="M1.965,20.659c-.1-3.963,6.154-3.963,6.09-.032a2.854,2.854,0,0,1-3.029,2.964,2.853,2.853,0,0,1-3.061-2.932m-.483-3.577A4.847,4.847,0,0,0,0,20.626v8.99a.983.983,0,0,0,1.965,0V24.622c3.125,2.545,8.216.064,8.055-4A5.039,5.039,0,0,0,4.865,15.6a4.725,4.725,0,0,0-3.383,1.482" transform="translate(0.001 -15.6)" fill="#fff"/>
      </g>
    </g>
    <g id="Сгруппировать_206" data-name="Сгруппировать 206" transform="translate(11.47 0.034)">
      <g id="Сгруппировать_205" data-name="Сгруппировать 205">
        <path id="SVGID_3_" d="M35.6,1.067V14.084a1,1,0,0,0,1.708.709.947.947,0,0,0,.29-.709V1.067A.937.937,0,0,0,36.6.1a.956.956,0,0,0-1,.967" transform="translate(-35.598 -0.1)" fill="#fff"/>
      </g>
    </g>
    <g id="Сгруппировать_208" data-name="Сгруппировать 208" transform="translate(14.847 4.996)">
      <g id="Сгруппировать_207" data-name="Сгруппировать 207">
        <path id="SVGID_5_" d="M54.076,20.494a2.949,2.949,0,1,1-5.9,0,2.916,2.916,0,0,1,3-3.029,2.855,2.855,0,0,1,2.9,3.029M47.6,16.982C43.186,21.3,49.308,28.2,54.141,24.49a.983.983,0,0,0,1.965,0V20.559A4.955,4.955,0,0,0,51.015,15.5,4.6,4.6,0,0,0,47.6,16.982" transform="translate(-46.079 -15.5)" fill="#fff"/>
      </g>
    </g>
    <g id="Сгруппировать_210" data-name="Сгруппировать 210" transform="translate(26.099 4.996)">
      <g id="Сгруппировать_209" data-name="Сгруппировать 209">
        <path id="SVGID_7_" d="M81,18.5a2.819,2.819,0,0,0,2.932,3c2.255.322.226,3.383-1,1.45-1.482-2.223-2.964.58-.87,1.933,2.835,2.384,6.637-1.965,4-4.479-.741-.967-1.965-.612-2.835-1.192-1.16-1.128,1.063-2.545,1.643-1.192,1.8,2.739,3.512-2.288-.934-2.513h-.064A2.839,2.839,0,0,0,81,18.5" transform="translate(-81 -15.5)" fill="#fff"/>
      </g>
    </g>
    <g id="Сгруппировать_212" data-name="Сгруппировать 212" transform="translate(32.897 0)">
      <g id="Сгруппировать_211" data-name="Сгруппировать 211">
        <path id="SVGID_9_" d="M105.514,0c-1.708-.1-.741,4.092-.967,4.994H104.1c-.838-.032-2-.064-2,1-.032,1.063,1.16,1.031,2,1h.419v7.056a.983.983,0,1,0,1.965,0V6.956H107.9a.937.937,0,0,0,.967-1,.937.937,0,0,0-.967-1h-1.418c-.193-.838.741-4.962-.87-4.962h-.1" transform="translate(-102.098 0.005)" fill="#fff"/>
      </g>
    </g>
    <g id="Сгруппировать_214" data-name="Сгруппировать 214" transform="translate(40.722 1)">
      <g id="Сгруппировать_213" data-name="Сгруппировать 213">
        <path id="SVGID_11_" d="M126.42,8.062c.1.258-.29,8.957.29,8.764a.984.984,0,0,0,1.675-.709V8.062a.983.983,0,0,0-1.965,0M127.451,3.1a.937.937,0,0,0-.967,1,.937.937,0,0,0,.967,1,.921.921,0,0,0,.967-1,.976.976,0,0,0-.967-1h0" transform="translate(-126.382 -3.1)" fill="#fff"/>
      </g>
    </g>
    <g id="Сгруппировать_216" data-name="Сгруппировать 216" transform="translate(44.303 0.034)">
      <g id="Сгруппировать_215" data-name="Сгруппировать 215">
        <path id="SVGID_13_" d="M137.5,1.067V14.084a1,1,0,0,0,1.708.709.948.948,0,0,0,.29-.709V1.067a.937.937,0,0,0-1-.967.974.974,0,0,0-1,.967" transform="translate(-137.498 -0.1)" fill="#fff"/>
      </g>
    </g>
    <g id="Сгруппировать_218" data-name="Сгруппировать 218" transform="translate(47.848 1)">
      <g id="Сгруппировать_217" data-name="Сгруппировать 217">
        <path id="SVGID_15_" d="M148.5,8.062v8.055a1,1,0,0,0,1,1,.977.977,0,0,0,.967-1V8.062a.983.983,0,0,0-1.965,0m1-4.962a.937.937,0,0,0-.967,1,.937.937,0,0,0,.967,1,.921.921,0,0,0,.967-1,.937.937,0,0,0-.967-1h0" transform="translate(-148.5 -3.1)" fill="#fff"/>
      </g>
    </g>
    <g id="Сгруппировать_220" data-name="Сгруппировать 220" transform="translate(51.227 4.964)">
      <g id="Сгруппировать_219" data-name="Сгруппировать 219">
        <path id="SVGID_17_" d="M159.056,24.454a.983.983,0,0,0,1.965,0V20.426c-.1-3.963,6.154-3.931,6.09,0v4.028a.983.983,0,0,0,1.965,0c.226-3.931.193-8.893-5.026-9.054-5.188.161-5.22,5.091-4.994,9.054" transform="translate(-158.987 -15.4)" fill="#fff"/>
      </g>
    </g>
    <g id="Сгруппировать_221" data-name="Сгруппировать 221" transform="translate(10.73 16.756)">
      <path id="Контур_1360" data-name="Контур 1360" d="M36.393,55.293h-.354l-.612-2.062a2.614,2.614,0,0,1-.1-.354c-.032-.129-.064-.226-.064-.258a5.811,5.811,0,0,1-.161.612l-.612,2.062h-.354L33.3,52.2h.387l.483,1.9c.064.258.129.516.161.741a6.6,6.6,0,0,1,.161-.773L35.04,52.2h.419l.58,1.9a4.238,4.238,0,0,1,.161.741,4.475,4.475,0,0,1,.161-.741l.483-1.9h.387Z" transform="translate(-33.3 -52.136)" fill="#fff"/>
      <path id="Контур_1361" data-name="Контур 1361" d="M67.84,55.293H66.1V52.2h1.74v.322H66.487v1h1.289v.322H66.487v1.128H67.84Z" transform="translate(-55.532 -52.136)" fill="#fff"/>
      <path id="Контур_1362" data-name="Контур 1362" d="M92.8,52.2h.87a1.631,1.631,0,0,1,.9.193.651.651,0,0,1,.29.58.7.7,0,0,1-.161.451.676.676,0,0,1-.451.226v.032c.483.1.709.322.709.741a.768.768,0,0,1-.29.644,1.164,1.164,0,0,1-.773.226H92.8S92.8,52.2,92.8,52.2Zm.354,1.321h.58a.806.806,0,0,0,.548-.129.508.508,0,0,0,.161-.419.459.459,0,0,0-.193-.387,1.287,1.287,0,0,0-.58-.129h-.516Zm0,.322V55H93.8a.782.782,0,0,0,.58-.161.541.541,0,0,0,.193-.451.479.479,0,0,0-.193-.419.969.969,0,0,0-.58-.129Z" transform="translate(-73.629 -52.136)" fill="#fff"/>
      <path id="Контур_1363" data-name="Контур 1363" d="M144.733,54.42a.811.811,0,0,1-.29.644,1.2,1.2,0,0,1-.806.226,1.986,1.986,0,0,1-.838-.129v-.354a1.6,1.6,0,0,0,.419.129,2.128,2.128,0,0,0,.451.032.922.922,0,0,0,.548-.129.459.459,0,0,0,.193-.387.607.607,0,0,0-.064-.258.7.7,0,0,0-.226-.193,2.077,2.077,0,0,0-.451-.193,1.531,1.531,0,0,1-.612-.354.758.758,0,0,1-.193-.548.807.807,0,0,1,.258-.58,1.238,1.238,0,0,1,.709-.226,2.282,2.282,0,0,1,.838.161l-.1.322a2.2,2.2,0,0,0-.741-.161.63.63,0,0,0-.451.129.462.462,0,0,0-.161.354.607.607,0,0,0,.064.258.547.547,0,0,0,.193.193,1.724,1.724,0,0,0,.419.193,1.624,1.624,0,0,1,.677.387A.667.667,0,0,1,144.733,54.42Z" transform="translate(-107.518 -52.068)" fill="#fff"/>
      <path id="Контур_1364" data-name="Контур 1364" d="M170.021,55.293h-.354V52.522H168.7V52.2h2.32v.322h-.967l-.032,2.771Z" transform="translate(-125.073 -52.136)" fill="#fff"/>
      <path id="Контур_1365" data-name="Контур 1365" d="M198.752,52.132v2a1.048,1.048,0,0,1-.322.838,1.29,1.29,0,0,1-.87.29,1.182,1.182,0,0,1-.87-.29,1.151,1.151,0,0,1-.29-.838v-2h.354v2.03a.689.689,0,0,0,.226.58.872.872,0,0,0,.612.193.929.929,0,0,0,.612-.193.825.825,0,0,0,.226-.612V52.1h.322Z" transform="translate(-143.848 -52.068)" fill="#fff"/>
      <path id="Контур_1366" data-name="Контур 1366" d="M227.881,53.714a1.465,1.465,0,0,1-.419,1.16,1.725,1.725,0,0,1-1.192.419h-.87V52.2h.934a1.545,1.545,0,0,1,1.128.387A1.483,1.483,0,0,1,227.881,53.714Zm-.387.032a1.214,1.214,0,0,0-.29-.9,1.275,1.275,0,0,0-.9-.322h-.516V55h.451a1.3,1.3,0,0,0,.967-.322A1.409,1.409,0,0,0,227.494,53.747Z" transform="translate(-163.504 -52.136)" fill="#fff"/>
      <path id="Контур_1367" data-name="Контур 1367" d="M254.4,55.293V52.2h.354v3.093Z" transform="translate(-183.16 -52.136)" fill="#fff"/>
      <path id="Контур_1368" data-name="Контур 1368" d="M279.568,53.611a1.682,1.682,0,0,1-.387,1.16,1.314,1.314,0,0,1-1.031.419,1.339,1.339,0,0,1-1.063-.419,1.713,1.713,0,0,1-.387-1.192,1.576,1.576,0,0,1,.387-1.16A1.339,1.339,0,0,1,278.15,52a1.229,1.229,0,0,1,1.031.419A1.572,1.572,0,0,1,279.568,53.611Zm-2.449,0a1.644,1.644,0,0,0,.258.967.955.955,0,0,0,.773.322.876.876,0,0,0,.773-.322,1.644,1.644,0,0,0,.258-.967,1.47,1.47,0,0,0-.258-.934.966.966,0,0,0-.773-.322.876.876,0,0,0-.773.322A1.47,1.47,0,0,0,277.119,53.611Z" transform="translate(-198.274 -52)" fill="#fff"/>
    </g>
  </g>
  <g id="Слой_2" transform="translate(69.139)">
    <g id="Сгруппировать_222" data-name="Сгруппировать 222" transform="translate(0 0)">
      <path id="Контур_1369" data-name="Контур 1369" d="M224.606,24.507c.064,1.321-1.933,1.257-1.965,0-4.833,3.705-10.955-3.19-6.541-7.507,2.964-3.19,8.732-.838,8.506,3.577v3.931Zm-4.93-.967c3.9.129,3.834-6.122,0-6.058-3.931-.064-4.06,6.186,0,6.058" transform="translate(-214.579 -10.52)" fill="#e55030"/>
      <path id="Контур_1370" data-name="Контур 1370" d="M251.858,24.313a.983.983,0,0,1-1.965,0V20.285c-.644-2.771,4.994-7.121,6.025-4.028a1.026,1.026,0,0,1-1,1c-3.705-.1-3.029,4.64-3.061,7.056" transform="translate(-238.479 -10.294)" fill="#e55030"/>
      <path id="Контур_1371" data-name="Контур 1371" d="M276.1,4.988a.983.983,0,0,1,0,1.965h-1.418V14.01a1.025,1.025,0,0,1-1,1,1,1,0,0,1-.967-1V6.954c-.806,0-2.449.258-2.417-1-.032-1.224,1.643-.967,2.417-.967.226-.9-.741-5.091.967-4.994,1.708-.129.773,4.092,1,4.994Z" transform="translate(-252.345 0.009)" fill="#e55030"/>
    </g>
  </g>
</svg>
