<svg xmlns="http://www.w3.org/2000/svg" width="19.469" height="22" viewBox="0 0 19.469 22">
  <g id="tiktok" transform="translate(-8010 -9076)">
    <path id="Объединение_4" data-name="Объединение 4" d="M521.964-170.011a6.656,6.656,0,0,1-1.905-4.671,6.658,6.658,0,0,0,1.905,4.672A6.675,6.675,0,0,1,519-175.562a6.682,6.682,0,0,1,6.685-6.681,6.653,6.653,0,0,1,.917.062v.818a6.827,6.827,0,0,1,1.058.061v3.7a3.087,3.087,0,0,0-.928-.143,3.057,3.057,0,0,0-3.058,3.056,3.048,3.048,0,0,0,.624,1.85,3.057,3.057,0,0,1-1.682-2.731,3.056,3.056,0,0,0,1.682,2.731,3.046,3.046,0,0,0,1.376.327,3.057,3.057,0,0,0,3.057-3.046V-190h3.639v.464c.013.139.031.277.055.415h0a5.06,5.06,0,0,0,2.309,3.415l0,0a5.052,5.052,0,0,0,2.675.763v.769a5.1,5.1,0,0,0,1.058.111v3.615a8.638,8.638,0,0,1-5.04-1.613v7.377A6.684,6.684,0,0,1,526.744-168,6.665,6.665,0,0,1,521.964-170.011Zm10.406-5.551a6.683,6.683,0,0,1-6.512,6.679,6.684,6.684,0,0,0,6.513-6.679v-7.377h0Zm-5.767-2.923h0a3.067,3.067,0,0,0-.869-.143A3.06,3.06,0,0,1,526.6-178.485Zm-.87-.143h0Zm11.678-5.544a5.049,5.049,0,0,1-.8-.241A5.025,5.025,0,0,0,537.411-184.172Zm-.8-.241-.04-.016Zm-.047-.019-.03-.012Zm-.048-.02-.021-.009Zm-.048-.02-.012-.005Zm-.048-.021h0Zm-4-4.628h1v.465a5.03,5.03,0,0,0,1.306,2.949A5.061,5.061,0,0,1,532.426-189.121Z" transform="translate(7491 9266)" fill="#fff"/>
  </g>
</svg>
