<svg xmlns="http://www.w3.org/2000/svg" xmlns:xlink="http://www.w3.org/1999/xlink" width="21.284" height="22" viewBox="0 0 21.284 22">
  <defs>
    <clipPath id="clip-path">
      <rect id="Прямоугольник_74" data-name="Прямоугольник 74" width="21.284" height="22" fill="#fff"/>
    </clipPath>
  </defs>
  <g id="Viber" transform="translate(0 0)">
    <g id="Сгруппировать_192" data-name="Сгруппировать 192" transform="translate(0 0)" clip-path="url(#clip-path)">
      <path id="Контур_1339" data-name="Контур 1339" d="M20.808,5.289,20.8,5.264A7.337,7.337,0,0,0,15.848.5l-.024,0A27.524,27.524,0,0,0,5.46.492L5.436.5A7.343,7.343,0,0,0,.482,5.264l-.006.025a20.281,20.281,0,0,0,0,8.738l.006.026a7.4,7.4,0,0,0,4.681,4.7v2.317a.931.931,0,0,0,1.6.645l2.348-2.44c.509.028,1.019.044,1.528.044a27.632,27.632,0,0,0,5.182-.491l.024-.005A7.336,7.336,0,0,0,20.8,14.053l.007-.026a20.281,20.281,0,0,0,0-8.738M18.95,13.607a5.551,5.551,0,0,1-3.5,3.349,25.639,25.639,0,0,1-5.512.445.13.13,0,0,0-.1.04L8.13,19.2,6.306,21.071a.213.213,0,0,1-.367-.147V17.086a.133.133,0,0,0-.108-.13h0a5.551,5.551,0,0,1-3.5-3.349,18.4,18.4,0,0,1,0-7.9,5.551,5.551,0,0,1,3.5-3.349,25.633,25.633,0,0,1,9.623,0,5.548,5.548,0,0,1,3.5,3.349,18.386,18.386,0,0,1,0,7.9" transform="translate(0 0)" fill="#fff"/>
      <path id="Контур_1340" data-name="Контур 1340" d="M18.63,20.04c-.215-.065-.419-.109-.609-.188A13.834,13.834,0,0,1,12.8,16.366a13.543,13.543,0,0,1-2-3.054c-.256-.52-.472-1.061-.692-1.6a1.388,1.388,0,0,1,.407-1.365A3.2,3.2,0,0,1,11.6,9.541a.69.69,0,0,1,.863.2,11.108,11.108,0,0,1,1.334,1.868.889.889,0,0,1-.249,1.2c-.1.069-.193.149-.287.226a.957.957,0,0,0-.217.229.624.624,0,0,0-.042.55,4.972,4.972,0,0,0,2.794,3.093,1.421,1.421,0,0,0,.716.174c.437-.051.579-.531.886-.782a.834.834,0,0,1,1.005-.044c.323.2.636.424.947.646a10.8,10.8,0,0,1,.892.679.707.707,0,0,1,.212.875,2.959,2.959,0,0,1-1.272,1.4,3.068,3.068,0,0,1-.55.175c-.215-.065.187-.057,0,0" transform="translate(-4.95 -4.662)" fill="#fff"/>
      <path id="Контур_1341" data-name="Контур 1341" d="M20.529,8.276A5.232,5.232,0,0,1,25.674,12.6c.077.434.1.878.139,1.318a.309.309,0,0,1-.29.363c-.206,0-.3-.17-.313-.355-.027-.366-.045-.734-.1-1.1a4.6,4.6,0,0,0-3.706-3.847c-.287-.051-.582-.064-.872-.1-.184-.019-.425-.03-.466-.259a.314.314,0,0,1,.31-.354c.05,0,.1,0,.15,0,2.576.072-.05,0,0,0" transform="translate(-9.881 -4.075)" fill="#fff"/>
      <path id="Контур_1342" data-name="Контур 1342" d="M24.9,14.686a1.228,1.228,0,0,1-.025.179.293.293,0,0,1-.551.03.787.787,0,0,1-.031-.249,3.113,3.113,0,0,0-.394-1.565,2.912,2.912,0,0,0-1.222-1.146,3.514,3.514,0,0,0-.973-.3c-.147-.024-.3-.039-.443-.059A.281.281,0,0,1,21,11.262a.277.277,0,0,1,.309-.274,4.035,4.035,0,0,1,1.688.44,3.413,3.413,0,0,1,1.857,2.652c.008.054.021.108.025.162.01.134.016.268.026.445,0,.032-.01-.177,0,0" transform="translate(-10.341 -5.411)" fill="#fff"/>
      <path id="Контур_1343" data-name="Контур 1343" d="M23.68,15.993a.318.318,0,0,1-.353-.313,3.184,3.184,0,0,0-.06-.411,1.156,1.156,0,0,0-.427-.67,1.12,1.12,0,0,0-.348-.168c-.158-.046-.322-.033-.48-.072a.294.294,0,0,1-.239-.341.31.31,0,0,1,.327-.249,1.771,1.771,0,0,1,1.814,1.764.807.807,0,0,1,0,.25.256.256,0,0,1-.23.211c-.216,0,.1-.007,0,0" transform="translate(-10.72 -6.78)" fill="#fff"/>
    </g>
  </g>
</svg>
